<?xml version="1.0" encoding="UTF-8"?>
<!DOCTYPE svg PUBLIC "-//W3C//DTD SVG 1.1//EN" "http://www.w3.org/Graphics/SVG/1.1/DTD/svg11.dtd">
<svg xmlns="http://www.w3.org/2000/svg" version="1.1" width="263px" height="220px" style="shape-rendering:geometricPrecision; text-rendering:geometricPrecision; image-rendering:optimizeQuality; fill-rule:evenodd; clip-rule:evenodd" xmlns:xlink="http://www.w3.org/1999/xlink">
<g><path style="opacity:1" fill="#ededed" d="M -0.5,-0.5 C 87.1667,-0.5 174.833,-0.5 262.5,-0.5C 262.5,72.8333 262.5,146.167 262.5,219.5C 174.833,219.5 87.1667,219.5 -0.5,219.5C -0.5,146.167 -0.5,72.8333 -0.5,-0.5 Z"/></g>
<g><path style="opacity:1" fill="#cee2e2" d="M 149.5,12.5 C 153.689,15.0274 156.356,18.6941 157.5,23.5C 157.916,26.5827 158.583,29.5827 159.5,32.5C 156.904,31.7347 154.237,31.4013 151.5,31.5C 153.003,37.4779 153.503,43.4779 153,49.5C 154.43,44.2552 155.43,38.9219 156,33.5C 158.278,40.7118 157.778,47.7118 154.5,54.5C 152.983,54.4894 151.816,53.8228 151,52.5C 149.667,53.1667 148.333,53.8333 147,54.5C 146.309,52.1088 145.309,52.1088 144,54.5C 142.384,53.4552 140.717,52.4552 139,51.5C 138.329,52.2524 137.496,52.5858 136.5,52.5C 136.5,50.8333 136.5,49.1667 136.5,47.5C 138.132,47.1753 139.132,46.1753 139.5,44.5C 138.504,41.2025 138.337,37.8692 139,34.5C 139.958,39.1232 140.625,43.7899 141,48.5C 141.21,46.9419 141.71,45.6085 142.5,44.5C 143.167,44.1667 143.833,43.8333 144.5,43.5C 144.824,49.7281 145.491,49.3947 146.5,42.5C 147.167,41.5 147.833,40.5 148.5,39.5C 149.489,46.1309 150.489,46.1309 151.5,39.5C 150.698,36.5514 150.364,33.5514 150.5,30.5C 147.833,30.5 145.167,30.5 142.5,30.5C 142.167,30.5 141.833,30.5 141.5,30.5C 139.139,30.6741 136.806,31.0074 134.5,31.5C 134.549,36.5388 133.882,36.7055 132.5,32C 131.184,31.4719 130.517,31.9719 130.5,33.5C 130.631,34.2389 130.464,34.9056 130,35.5C 127.504,31.755 126.337,32.4217 126.5,37.5C 125.717,35.9242 124.55,34.5908 123,33.5C 122.666,35.8473 122.833,38.1806 123.5,40.5C 121.912,38.0663 120.079,35.7329 118,33.5C 118.359,36.1123 118.859,38.779 119.5,41.5C 117.605,40.027 115.939,38.3603 114.5,36.5C 113.833,36.1667 113.167,35.8333 112.5,35.5C 113.928,29.9776 116.428,24.9776 120,20.5C 122.706,22.8706 125.039,25.5372 127,28.5C 127.315,27.0922 126.982,25.7589 126,24.5C 124.315,22.9825 122.815,21.3159 121.5,19.5C 123.734,18.7713 125.067,17.7713 125.5,16.5C 131.443,19.1995 131.777,18.6995 126.5,15C 127.833,14.6667 129.167,14.3333 130.5,14C 129.833,13.6667 129.167,13.3333 128.5,13C 132.242,11.015 135.909,11.1816 139.5,13.5C 139.489,12.5585 139.989,11.8919 141,11.5C 144.561,13.0548 147.561,15.3882 150,18.5C 149.805,16.255 148.638,14.4216 146.5,13C 147.448,12.5172 148.448,12.3505 149.5,12.5 Z"/></g>
<g><path style="opacity:1" fill="#aeeeaa" d="M 101.5,16.5 C 98.447,16.6815 95.447,16.8481 92.5,17C 95.5603,15.3367 98.5603,15.1701 101.5,16.5 Z"/></g>
<g><path style="opacity:1" fill="#a7eda3" d="M 101.5,16.5 C 104.649,16.4152 107.316,17.4152 109.5,19.5C 109.5,20.1667 109.167,20.5 108.5,20.5C 106.297,18.8998 103.964,17.5665 101.5,16.5 Z"/></g>
<g><path style="opacity:1" fill="#a5eea0" d="M 106.5,21.5 C 106.5,22.1667 106.167,22.5 105.5,22.5C 100.05,19.4114 94.3837,18.9114 88.5,21C 93.2872,20.9566 97.6205,22.1233 101.5,24.5C 96.2631,22.4654 90.9297,22.1321 85.5,23.5C 85.5,22.8333 85.5,22.1667 85.5,21.5C 86.5478,19.4662 88.2145,18.1329 90.5,17.5C 96.0512,18.0254 101.385,19.3587 106.5,21.5 Z"/></g>
<g><path style="opacity:1" fill="#eceeec" d="M 105.5,22.5 C 104.713,24.1042 103.38,24.7709 101.5,24.5C 97.6205,22.1233 93.2872,20.9566 88.5,21C 94.3837,18.9114 100.05,19.4114 105.5,22.5 Z"/></g>
<g><path style="opacity:1" fill="#dcecdd" d="M 101.5,24.5 C 101.611,25.1174 101.944,25.6174 102.5,26C 97.4857,30.2426 93.819,34.9093 91.5,40C 94.0758,40.7822 96.0758,42.2822 97.5,44.5C 96.2361,44.6399 95.0695,44.6399 94,44.5C 93.2798,42.9443 92.1132,41.9443 90.5,41.5C 88.6541,39.5454 86.3208,38.5454 83.5,38.5C 81.7809,37.9779 80.4475,36.9779 79.5,35.5C 86.0414,35.4622 86.0414,34.7955 79.5,33.5C 81,33.1667 82.5,32.8333 84,32.5C 86.5402,32.8958 89.0402,33.0625 91.5,33C 87.9015,31.9861 84.2348,31.1527 80.5,30.5C 81.376,29.7492 82.376,29.2492 83.5,29C 82.8333,28.6667 82.1667,28.3333 81.5,28C 83.785,26.8854 85.1184,25.3854 85.5,23.5C 90.9297,22.1321 96.2631,22.4654 101.5,24.5 Z"/></g>
<g><path style="opacity:1" fill="#a2ee9e" d="M 85.5,25.5 C 89.889,24.0883 94.2223,24.5883 98.5,27C 94.2897,26.091 89.9563,25.591 85.5,25.5 Z"/></g>
<g><path style="opacity:1" fill="#4fb5c4" d="M 149.5,12.5 C 148.448,12.3505 147.448,12.5172 146.5,13C 148.638,14.4216 149.805,16.255 150,18.5C 147.561,15.3882 144.561,13.0548 141,11.5C 139.989,11.8919 139.489,12.5585 139.5,13.5C 135.909,11.1816 132.242,11.015 128.5,13C 129.167,13.3333 129.833,13.6667 130.5,14C 129.167,14.3333 127.833,14.6667 126.5,15C 131.777,18.6995 131.443,19.1995 125.5,16.5C 125.067,17.7713 123.734,18.7713 121.5,19.5C 122.815,21.3159 124.315,22.9825 126,24.5C 126.982,25.7589 127.315,27.0922 127,28.5C 125.039,25.5372 122.706,22.8706 120,20.5C 116.428,24.9776 113.928,29.9776 112.5,35.5C 110.583,34.0907 108.75,32.424 107,30.5C 107.21,33.4689 108.043,36.3023 109.5,39C 109.472,40.0698 109.139,40.9032 108.5,41.5C 106.537,40.0401 104.704,38.3734 103,36.5C 102.952,38.5441 103.452,40.5441 104.5,42.5C 101.922,42.6767 101.922,43.8433 104.5,46C 103.464,47.6169 102.297,47.7836 101,46.5C 100.667,47.8333 100.333,49.1667 100,50.5C 99.6667,50.1667 99.3333,49.8333 99,49.5C 99.6808,54.3331 98.3474,58.6664 95,62.5C 93.9055,60.9221 93.0722,59.2554 92.5,57.5C 92.6107,56.8826 92.944,56.3826 93.5,56C 92.241,53.2728 90.241,51.4394 87.5,50.5C 87.9175,49.7784 88.5842,49.2784 89.5,49C 88.944,48.6174 88.6107,48.1174 88.5,47.5C 88.5,47.1667 88.5,46.8333 88.5,46.5C 89.404,45.791 89.7373,44.791 89.5,43.5C 89.5,43.1667 89.5,42.8333 89.5,42.5C 90.1667,42.5 90.5,42.1667 90.5,41.5C 92.1132,41.9443 93.2798,42.9443 94,44.5C 95.0695,44.6399 96.2361,44.6399 97.5,44.5C 96.0758,42.2822 94.0758,40.7822 91.5,40C 93.819,34.9093 97.4857,30.2426 102.5,26C 101.944,25.6174 101.611,25.1174 101.5,24.5C 103.38,24.7709 104.713,24.1042 105.5,22.5C 106.167,22.5 106.5,22.1667 106.5,21.5C 107.492,21.6716 108.158,21.3382 108.5,20.5C 109.167,20.5 109.5,20.1667 109.5,19.5C 116.668,15.2532 124.335,12.0865 132.5,10C 136.316,9.79423 139.982,9.62757 143.5,9.5C 145.836,10.001 147.836,11.001 149.5,12.5 Z"/></g>
<g><path style="opacity:1" fill="#f8e182" d="M 142.5,30.5 C 145.167,30.5 147.833,30.5 150.5,30.5C 150.364,33.5514 150.698,36.5514 151.5,39.5C 150.489,46.1309 149.489,46.1309 148.5,39.5C 148.477,37.0733 147.977,34.74 147,32.5C 146.502,35.8168 146.335,39.1501 146.5,42.5C 145.491,49.3947 144.824,49.7281 144.5,43.5C 144.369,39.0478 143.702,34.7144 142.5,30.5 Z"/></g>
<g><path style="opacity:1" fill="#cfdaa8" d="M 130.5,33.5 C 131.497,33.4701 132.164,33.9701 132.5,35C 131.922,36.8114 131.422,38.6447 131,40.5C 130.667,39.1667 130.333,37.8333 130,36.5C 128.71,47.478 127.543,47.8114 126.5,37.5C 126.337,32.4217 127.504,31.755 130,35.5C 130.464,34.9056 130.631,34.2389 130.5,33.5 Z"/></g>
<g><path style="opacity:1" fill="#f6e28b" d="M 159.5,32.5 C 159.467,40.1168 158.134,47.4501 155.5,54.5C 155.167,54.5 154.833,54.5 154.5,54.5C 157.778,47.7118 158.278,40.7118 156,33.5C 155.43,38.9219 154.43,44.2552 153,49.5C 153.503,43.4779 153.003,37.4779 151.5,31.5C 154.237,31.4013 156.904,31.7347 159.5,32.5 Z"/></g>
<g><path style="opacity:1" fill="#7eed77" d="M 85.5,21.5 C 85.5,22.1667 85.5,22.8333 85.5,23.5C 85.1184,25.3854 83.785,26.8854 81.5,28C 82.1667,28.3333 82.8333,28.6667 83.5,29C 82.376,29.2492 81.376,29.7492 80.5,30.5C 84.2348,31.1527 87.9015,31.9861 91.5,33C 89.0402,33.0625 86.5402,32.8958 84,32.5C 82.5,32.8333 81,33.1667 79.5,33.5C 86.0414,34.7955 86.0414,35.4622 79.5,35.5C 77.9582,36.3007 76.2915,36.634 74.5,36.5C 76.9479,30.6034 80.6145,25.6034 85.5,21.5 Z"/></g>
<g><path style="opacity:1" fill="#8ecbc6" d="M 112.5,35.5 C 113.167,35.8333 113.833,36.1667 114.5,36.5C 115.371,39.1123 116.037,41.779 116.5,44.5C 115.521,43.2347 114.521,41.9014 113.5,40.5C 113.167,41.1667 112.833,41.8333 112.5,42.5C 113.648,44.7613 114.148,47.0946 114,49.5C 113.163,47.1558 111.829,45.1558 110,43.5C 109.667,44.8333 109.333,46.1667 109,47.5C 108.536,46.9056 108.369,46.2389 108.5,45.5C 108.5,44.1667 108.5,42.8333 108.5,41.5C 109.139,40.9032 109.472,40.0698 109.5,39C 108.043,36.3023 107.21,33.4689 107,30.5C 108.75,32.424 110.583,34.0907 112.5,35.5 Z"/></g>
<g><path style="opacity:1" fill="#f0df82" d="M 141.5,30.5 C 142.229,35.1304 142.563,39.7971 142.5,44.5C 141.71,45.6085 141.21,46.9419 141,48.5C 140.625,43.7899 139.958,39.1232 139,34.5C 138.337,37.8692 138.504,41.2025 139.5,44.5C 139.132,46.1753 138.132,47.1753 136.5,47.5C 136.662,45.4727 136.495,43.4727 136,41.5C 135.503,43.8098 135.337,46.1432 135.5,48.5C 134.504,48.5858 133.671,48.2524 133,47.5C 132.667,45.5 132.333,43.5 132,41.5C 131.667,45.5 131.333,49.5 131,53.5C 130.617,52.944 130.117,52.6107 129.5,52.5C 129.66,50.8008 129.494,49.1341 129,47.5C 128.808,49.5767 128.308,51.5767 127.5,53.5C 126.808,52.9747 126.308,52.3081 126,51.5C 125.722,52.4158 125.222,53.0825 124.5,53.5C 122.744,52.4479 122.077,50.7812 122.5,48.5C 123.167,48.5 123.833,48.5 124.5,48.5C 124.369,49.2389 124.536,49.9056 125,50.5C 125.674,46.8877 125.174,43.5544 123.5,40.5C 122.833,38.1806 122.666,35.8473 123,33.5C 124.55,34.5908 125.717,35.9242 126.5,37.5C 127.543,47.8114 128.71,47.478 130,36.5C 130.333,37.8333 130.667,39.1667 131,40.5C 131.422,38.6447 131.922,36.8114 132.5,35C 132.164,33.9701 131.497,33.4701 130.5,33.5C 130.517,31.9719 131.184,31.4719 132.5,32C 133.882,36.7055 134.549,36.5388 134.5,31.5C 136.806,31.0074 139.139,30.6741 141.5,30.5 Z"/></g>
<g><path style="opacity:1" fill="#fbe17d" d="M 160.5,33.5 C 166.36,34.7662 171.693,37.0995 176.5,40.5C 175.833,40.8333 175.167,41.1667 174.5,41.5C 173.538,39.0144 172.705,39.0144 172,41.5C 171.465,39.7295 170.631,39.3961 169.5,40.5C 170.575,43.438 170.741,46.438 170,49.5C 169.855,45.9627 169.022,42.6294 167.5,39.5C 166.797,43.8704 165.964,48.2037 165,52.5C 164.821,49.8525 164.988,47.1859 165.5,44.5C 165.635,42.192 164.969,40.192 163.5,38.5C 162.959,43.0805 161.959,47.4138 160.5,51.5C 161.571,47.0109 161.571,42.6776 160.5,38.5C 160.5,36.8333 160.5,35.1667 160.5,33.5 Z"/></g>
<g><path style="opacity:1" fill="#aacd9f" d="M 148.5,39.5 C 147.833,40.5 147.167,41.5 146.5,42.5C 146.335,39.1501 146.502,35.8168 147,32.5C 147.977,34.74 148.477,37.0733 148.5,39.5 Z"/></g>
<g><path style="opacity:1" fill="#efe592" d="M 79.5,35.5 C 80.4475,36.9779 81.7809,37.9779 83.5,38.5C 79.8212,38.2756 76.1545,37.9422 72.5,37.5C 68.0893,37.8608 63.7559,38.3608 59.5,39C 64.258,36.8561 69.258,36.0227 74.5,36.5C 76.2915,36.634 77.9582,36.3007 79.5,35.5 Z"/></g>
<g><path style="opacity:1" fill="#efeeec" d="M 89.5,42.5 C 89.5,42.8333 89.5,43.1667 89.5,43.5C 85.7095,42.969 82.0428,41.969 78.5,40.5C 82.4155,39.4637 86.0822,40.1303 89.5,42.5 Z"/></g>
<g><path style="opacity:1" fill="#dee387" d="M 123.5,40.5 C 123.575,43.2062 123.908,45.8728 124.5,48.5C 123.833,48.5 123.167,48.5 122.5,48.5C 121.683,46.0314 121.183,43.3647 121,40.5C 120.617,41.056 120.117,41.3893 119.5,41.5C 118.859,38.779 118.359,36.1123 118,33.5C 120.079,35.7329 121.912,38.0663 123.5,40.5 Z"/></g>
<g><path style="opacity:1" fill="#a3cba1" d="M 141.5,30.5 C 141.833,30.5 142.167,30.5 142.5,30.5C 143.702,34.7144 144.369,39.0478 144.5,43.5C 143.833,43.8333 143.167,44.1667 142.5,44.5C 142.563,39.7971 142.229,35.1304 141.5,30.5 Z"/></g>
<g><path style="opacity:1" fill="#ecede9" d="M 160.5,38.5 C 161.571,42.6776 161.571,47.0109 160.5,51.5C 160.167,51.5 159.833,51.5 159.5,51.5C 160.08,47.19 160.414,42.8566 160.5,38.5 Z"/></g>
<g><path style="opacity:1" fill="#abeb88" d="M 72.5,37.5 C 76.1545,37.9422 79.8212,38.2756 83.5,38.5C 86.3208,38.5454 88.6541,39.5454 90.5,41.5C 90.5,42.1667 90.1667,42.5 89.5,42.5C 86.0822,40.1303 82.4155,39.4637 78.5,40.5C 82.0428,41.969 85.7095,42.969 89.5,43.5C 89.7373,44.791 89.404,45.791 88.5,46.5C 85.3738,44.3358 82.0405,43.6691 78.5,44.5C 79.6016,45.1757 80.6016,45.8423 81.5,46.5C 80.791,47.404 79.791,47.7373 78.5,47.5C 78.5,48.5 78.5,49.5 78.5,50.5C 80.5273,50.3379 82.5273,50.5045 84.5,51C 83.1354,52.6819 81.6354,52.8486 80,51.5C 79.1349,53.8878 79.9683,55.3878 82.5,56C 81.5842,56.2784 80.9175,56.7784 80.5,57.5C 75.8333,57.5 71.1667,57.5 66.5,57.5C 66.5569,56.391 66.8902,55.391 67.5,54.5C 67.5,54.1667 67.5,53.8333 67.5,53.5C 68.1667,50.5 68.8333,47.5 69.5,44.5C 70.3382,44.1583 70.6716,43.4916 70.5,42.5C 71.3382,42.1583 71.6716,41.4916 71.5,40.5C 72.404,39.791 72.7373,38.791 72.5,37.5 Z"/></g>
<g><path style="opacity:1" fill="#1ca0b4" d="M 108.5,41.5 C 108.5,42.8333 108.5,44.1667 108.5,45.5C 107.539,47.2646 107.205,49.2646 107.5,51.5C 106.662,51.8417 106.328,52.5084 106.5,53.5C 106.5,54.5 106.5,55.5 106.5,56.5C 107.423,61.544 109.923,62.8773 114,60.5C 114.791,61.745 115.291,63.0783 115.5,64.5C 115.337,66.8568 115.503,69.1902 116,71.5C 116.667,70.1667 117.333,68.8333 118,67.5C 120.55,70.0487 122.717,72.8821 124.5,76C 123.044,76.4226 122.544,77.2559 123,78.5C 125.168,76.5455 127.502,75.8788 130,76.5C 130.464,75.9056 130.631,75.2389 130.5,74.5C 131.708,73.7659 133.041,73.4326 134.5,73.5C 134.082,74.2216 133.416,74.7216 132.5,75C 134.932,76.0875 134.598,76.5875 131.5,76.5C 131.671,79.7973 131.005,80.1306 129.5,77.5C 127.39,78.9605 125.39,79.7938 123.5,80C 124.92,81.4916 126.254,82.9916 127.5,84.5C 124.544,89.2902 120.711,93.2902 116,96.5C 116.418,90.8262 117.751,85.4929 120,80.5C 118.951,79.4829 117.784,79.3162 116.5,80C 112.95,83.8826 109.783,88.0493 107,92.5C 106.613,87.8324 108.113,83.8324 111.5,80.5C 110.68,78.8888 109.346,78.2222 107.5,78.5C 107.062,78.5654 106.728,78.3988 106.5,78C 108.767,76.9188 108.934,75.4188 107,73.5C 106.667,74.1667 106.333,74.8333 106,75.5C 105.583,74.244 104.75,73.5774 103.5,73.5C 103.5,73.1667 103.5,72.8333 103.5,72.5C 104.239,72.631 104.906,72.4643 105.5,72C 104.743,70.4878 103.743,69.1545 102.5,68C 103.448,67.5172 104.448,67.3505 105.5,67.5C 105.5,66.1667 105.5,64.8333 105.5,63.5C 103.669,64.0522 102.003,64.0522 100.5,63.5C 97.7877,64.212 96.1211,65.8787 95.5,68.5C 93.6965,68.4241 91.6965,68.7575 89.5,69.5C 88.5516,66.9546 89.385,66.2879 92,67.5C 93.5,67.3333 94.3333,66.5 94.5,65C 93.5828,62.4192 92.2495,60.0859 90.5,58C 91.0944,57.5357 91.7611,57.369 92.5,57.5C 93.0722,59.2554 93.9055,60.9221 95,62.5C 98.3474,58.6664 99.6808,54.3331 99,49.5C 99.3333,49.8333 99.6667,50.1667 100,50.5C 100.333,49.1667 100.667,47.8333 101,46.5C 102.297,47.7836 103.464,47.6169 104.5,46C 101.922,43.8433 101.922,42.6767 104.5,42.5C 103.452,40.5441 102.952,38.5441 103,36.5C 104.704,38.3734 106.537,40.0401 108.5,41.5 Z"/></g>
<g><path style="opacity:1" fill="#efebdd" d="M 174.5,41.5 C 174.932,42.7095 175.599,43.7095 176.5,44.5C 176.393,42.6214 176.893,42.2881 178,43.5C 181.154,49.4199 181.32,55.4199 178.5,61.5C 176.313,62.758 173.98,63.758 171.5,64.5C 167.995,61.4861 164.162,58.8194 160,56.5C 160.019,54.8925 160.185,53.2259 160.5,51.5C 161.959,47.4138 162.959,43.0805 163.5,38.5C 164.969,40.192 165.635,42.192 165.5,44.5C 164.988,47.1859 164.821,49.8525 165,52.5C 165.964,48.2037 166.797,43.8704 167.5,39.5C 169.022,42.6294 169.855,45.9627 170,49.5C 170.741,46.438 170.575,43.438 169.5,40.5C 170.631,39.3961 171.465,39.7295 172,41.5C 172.705,39.0144 173.538,39.0144 174.5,41.5 Z"/></g>
<g><path style="opacity:1" fill="#f4e6a5" d="M 71.5,40.5 C 71.6716,41.4916 71.3382,42.1583 70.5,42.5C 70.0831,41.8761 69.4164,41.5427 68.5,41.5C 65.5178,42.5009 62.5178,43.0009 59.5,43C 63.253,41.0111 67.253,40.1778 71.5,40.5 Z"/></g>
<g><path style="opacity:1" fill="#eeeeeb" d="M 88.5,46.5 C 88.5,46.8333 88.5,47.1667 88.5,47.5C 86.1944,47.0074 83.861,46.6741 81.5,46.5C 80.6016,45.8423 79.6016,45.1757 78.5,44.5C 82.0405,43.6691 85.3738,44.3358 88.5,46.5 Z"/></g>
<g><path style="opacity:1" fill="#98cfd6" d="M 157.5,23.5 C 159.41,26.4525 160.41,29.7858 160.5,33.5C 160.5,35.1667 160.5,36.8333 160.5,38.5C 160.414,42.8566 160.08,47.19 159.5,51.5C 159.446,53.632 158.446,54.9653 156.5,55.5C 155.833,55.5 155.5,55.1667 155.5,54.5C 158.134,47.4501 159.467,40.1168 159.5,32.5C 158.583,29.5827 157.916,26.5827 157.5,23.5 Z"/></g>
<g><path style="opacity:1" fill="#a1d2a2" d="M 135.5,48.5 C 135.5,50.5 135.5,52.5 135.5,54.5C 132.918,54.9746 130.918,54.3079 129.5,52.5C 130.117,52.6107 130.617,52.944 131,53.5C 131.333,49.5 131.667,45.5 132,41.5C 132.333,43.5 132.667,45.5 133,47.5C 133.671,48.2524 134.504,48.5858 135.5,48.5 Z"/></g>
<g><path style="opacity:1" fill="#7fc099" d="M 123.5,40.5 C 125.174,43.5544 125.674,46.8877 125,50.5C 124.536,49.9056 124.369,49.2389 124.5,48.5C 123.908,45.8728 123.575,43.2062 123.5,40.5 Z"/></g>
<g><path style="opacity:1" fill="#f8e59b" d="M 176.5,44.5 C 177.9,49.1014 177.733,53.768 176,58.5C 176.31,53.8932 176.476,49.2266 176.5,44.5 Z"/></g>
<g><path style="opacity:1" fill="#f0e17d" d="M 114.5,36.5 C 115.939,38.3603 117.605,40.027 119.5,41.5C 120.036,44.8462 120.703,48.1796 121.5,51.5C 121.167,52.1667 120.833,52.8333 120.5,53.5C 119.011,50.4965 117.678,47.4965 116.5,44.5C 116.037,41.779 115.371,39.1123 114.5,36.5 Z"/></g>
<g><path style="opacity:1" fill="#eee9d7" d="M 185.5,48.5 C 188.843,53.4391 189.343,58.7724 187,64.5C 185.678,67.965 184.178,71.2983 182.5,74.5C 180.5,73.1667 178.833,71.5 177.5,69.5C 178.259,67.5642 179.259,65.7309 180.5,64C 180.257,63.0979 179.923,62.2646 179.5,61.5C 181.524,56.6187 181.857,51.6187 180.5,46.5C 180.846,45.3044 181.346,45.3044 182,46.5C 182.333,47.5 182.667,48.5 183,49.5C 183.393,54.2009 183.393,58.8676 183,63.5C 183.998,58.3963 184.831,53.3963 185.5,48.5 Z"/></g>
<g><path style="opacity:1" fill="#e4dd82" d="M 116.5,44.5 C 116.62,47.4802 117.287,50.3135 118.5,53C 117.906,53.4643 117.239,53.631 116.5,53.5C 116.167,53.5 115.833,53.5 115.5,53.5C 115.649,52.448 115.483,51.448 115,50.5C 114.781,51.938 114.281,53.2713 113.5,54.5C 112.808,53.9747 112.308,53.3081 112,52.5C 111.751,53.624 111.251,54.624 110.5,55.5C 109.479,54.0986 108.479,52.7653 107.5,51.5C 107.205,49.2646 107.539,47.2646 108.5,45.5C 108.369,46.2389 108.536,46.9056 109,47.5C 109.333,46.1667 109.667,44.8333 110,43.5C 111.829,45.1558 113.163,47.1558 114,49.5C 114.148,47.0946 113.648,44.7613 112.5,42.5C 112.833,41.8333 113.167,41.1667 113.5,40.5C 114.521,41.9014 115.521,43.2347 116.5,44.5 Z"/></g>
<g><path style="opacity:1" fill="#f8e5a0" d="M 176.5,40.5 C 180.767,41.7684 183.767,44.4351 185.5,48.5C 184.831,53.3963 183.998,58.3963 183,63.5C 183.393,58.8676 183.393,54.2009 183,49.5C 182.667,48.5 182.333,47.5 182,46.5C 181.346,45.3044 180.846,45.3044 180.5,46.5C 181.857,51.6187 181.524,56.6187 179.5,61.5C 179.167,61.5 178.833,61.5 178.5,61.5C 181.32,55.4199 181.154,49.4199 178,43.5C 176.893,42.2881 176.393,42.6214 176.5,44.5C 175.599,43.7095 174.932,42.7095 174.5,41.5C 175.167,41.1667 175.833,40.8333 176.5,40.5 Z"/></g>
<g><path style="opacity:1" fill="#85c090" d="M 122.5,48.5 C 122.077,50.7812 122.744,52.4479 124.5,53.5C 125.406,56.2064 125.406,59.2064 124.5,62.5C 123.749,61.624 123.249,60.624 123,59.5C 122.821,62.5535 122.321,65.5535 121.5,68.5C 121.319,66.5885 120.986,64.4218 120.5,62C 120.675,60.3419 121.342,59.0086 122.5,58C 121.552,57.5172 120.552,57.3505 119.5,57.5C 119.808,59.924 119.474,62.2573 118.5,64.5C 117.494,64.0623 117.494,63.3957 118.5,62.5C 117.067,59.667 116.4,56.667 116.5,53.5C 117.239,53.631 117.906,53.4643 118.5,53C 117.287,50.3135 116.62,47.4802 116.5,44.5C 117.678,47.4965 119.011,50.4965 120.5,53.5C 120.833,52.8333 121.167,52.1667 121.5,51.5C 120.703,48.1796 120.036,44.8462 119.5,41.5C 120.117,41.3893 120.617,41.056 121,40.5C 121.183,43.3647 121.683,46.0314 122.5,48.5 Z"/></g>
<g><path style="opacity:1" fill="#46b0a7" d="M 136.5,47.5 C 136.5,49.1667 136.5,50.8333 136.5,52.5C 136.651,55.7181 137.484,56.0515 139,53.5C 140.515,57.627 142.848,58.2936 146,55.5C 146.29,57.0441 146.956,58.3774 148,59.5C 148.333,59.1667 148.667,58.8333 149,58.5C 150.734,60.4506 152.901,61.4506 155.5,61.5C 155.629,59.7839 155.962,58.1172 156.5,56.5C 158.495,58.5249 158.495,60.3582 156.5,62C 156.833,62.5 157.167,63 157.5,63.5C 159.794,64.7057 162.127,65.7057 164.5,66.5C 160.631,67.5742 156.964,69.2408 153.5,71.5C 152.609,70.8902 151.609,70.5569 150.5,70.5C 147.663,72.1723 146.996,71.5056 148.5,68.5C 146.001,65.0548 143.168,64.7215 140,67.5C 139.316,66.2161 139.483,65.0495 140.5,64C 137.89,63.8528 135.556,63.0194 133.5,61.5C 132.614,62.325 132.281,63.325 132.5,64.5C 133.552,64.3505 134.552,64.5172 135.5,65C 134.833,67 134.167,69 133.5,71C 136.27,69.8018 139.27,69.4684 142.5,70C 140.5,70.3333 138.5,70.6667 136.5,71C 137.308,71.3076 137.975,71.8076 138.5,72.5C 138.062,73.5063 137.396,73.5063 136.5,72.5C 135.417,73.365 135.251,74.365 136,75.5C 136.667,74.1667 137.333,74.1667 138,75.5C 139,74.1667 140,72.8333 141,71.5C 142.682,71.8068 144.348,72.1402 146,72.5C 147.098,73.3839 147.598,74.3839 147.5,75.5C 148.183,75.1373 148.85,74.8039 149.5,74.5C 150.397,73.4019 151.23,73.4019 152,74.5C 152.765,76.0657 152.598,77.3991 151.5,78.5C 151.672,79.4916 151.338,80.1583 150.5,80.5C 149.432,79.5655 148.099,79.2322 146.5,79.5C 144.01,78.172 141.344,77.172 138.5,76.5C 137.201,77.6937 135.868,78.6937 134.5,79.5C 131.907,80.7536 129.573,82.4202 127.5,84.5C 126.254,82.9916 124.92,81.4916 123.5,80C 125.39,79.7938 127.39,78.9605 129.5,77.5C 131.005,80.1306 131.671,79.7973 131.5,76.5C 134.598,76.5875 134.932,76.0875 132.5,75C 133.416,74.7216 134.082,74.2216 134.5,73.5C 133.722,72.8444 133.056,72.0111 132.5,71C 133.233,69.2341 133.567,67.4008 133.5,65.5C 131.179,65.7711 129.179,65.1045 127.5,63.5C 126.281,64.6461 124.948,65.6461 123.5,66.5C 124.025,67.1924 124.692,67.6924 125.5,68C 124.044,68.4226 123.544,69.2559 124,70.5C 124.414,70.0426 124.914,69.7093 125.5,69.5C 125.833,70.1667 126.167,70.8333 126.5,71.5C 127.386,70.675 127.719,69.675 127.5,68.5C 129.29,67.9866 130.956,67.4866 132.5,67C 131.624,68.5848 130.291,69.5848 128.5,70C 130.107,71.049 130.773,72.549 130.5,74.5C 130.631,75.2389 130.464,75.9056 130,76.5C 127.502,75.8788 125.168,76.5455 123,78.5C 122.544,77.2559 123.044,76.4226 124.5,76C 122.717,72.8821 120.55,70.0487 118,67.5C 117.333,68.8333 116.667,70.1667 116,71.5C 115.503,69.1902 115.337,66.8568 115.5,64.5C 115.936,60.8202 115.936,57.1535 115.5,53.5C 115.833,53.5 116.167,53.5 116.5,53.5C 116.4,56.667 117.067,59.667 118.5,62.5C 117.494,63.3957 117.494,64.0623 118.5,64.5C 119.474,62.2573 119.808,59.924 119.5,57.5C 120.552,57.3505 121.552,57.5172 122.5,58C 121.342,59.0086 120.675,60.3419 120.5,62C 120.986,64.4218 121.319,66.5885 121.5,68.5C 122.321,65.5535 122.821,62.5535 123,59.5C 123.249,60.624 123.749,61.624 124.5,62.5C 125.406,59.2064 125.406,56.2064 124.5,53.5C 125.222,53.0825 125.722,52.4158 126,51.5C 126.308,52.3081 126.808,52.9747 127.5,53.5C 128.308,51.5767 128.808,49.5767 129,47.5C 129.494,49.1341 129.66,50.8008 129.5,52.5C 130.918,54.3079 132.918,54.9746 135.5,54.5C 135.5,52.5 135.5,50.5 135.5,48.5C 135.337,46.1432 135.503,43.8098 136,41.5C 136.495,43.4727 136.662,45.4727 136.5,47.5 Z"/></g>
<g><path style="opacity:1" fill="#f7e6a3" d="M 67.5,53.5 C 67.5,53.8333 67.5,54.1667 67.5,54.5C 63.6703,55.0645 60.0036,55.8979 56.5,57C 59.7343,54.5333 63.4009,53.3666 67.5,53.5 Z"/></g>
<g><path style="opacity:1" fill="#dde9c1" d="M 81.5,46.5 C 83.861,46.6741 86.1944,47.0074 88.5,47.5C 88.6107,48.1174 88.944,48.6174 89.5,49C 88.5842,49.2784 87.9175,49.7784 87.5,50.5C 87.9528,51.4584 88.6195,52.2917 89.5,53C 86.5128,55.7849 85.1795,59.2849 85.5,63.5C 85.9227,65.7812 85.256,67.4479 83.5,68.5C 83.5,68.1667 83.5,67.8333 83.5,67.5C 83.6107,66.8826 83.944,66.3826 84.5,66C 82.8588,64.871 81.8588,63.371 81.5,61.5C 81.4431,60.391 81.1098,59.391 80.5,58.5C 80.5,58.1667 80.5,57.8333 80.5,57.5C 80.9175,56.7784 81.5842,56.2784 82.5,56C 79.9683,55.3878 79.1349,53.8878 80,51.5C 81.6354,52.8486 83.1354,52.6819 84.5,51C 82.5273,50.5045 80.5273,50.3379 78.5,50.5C 78.5,49.5 78.5,48.5 78.5,47.5C 79.791,47.7373 80.791,47.404 81.5,46.5 Z"/></g>
<g><path style="opacity:1" fill="#fddf69" d="M 106.5,53.5 C 108.985,54.7399 108.985,55.7399 106.5,56.5C 106.5,55.5 106.5,54.5 106.5,53.5 Z"/></g>
<g><path style="opacity:1" fill="#90dd95" d="M 154.5,54.5 C 154.833,54.5 155.167,54.5 155.5,54.5C 155.5,55.1667 155.833,55.5 156.5,55.5C 156.5,55.8333 156.5,56.1667 156.5,56.5C 155.962,58.1172 155.629,59.7839 155.5,61.5C 152.901,61.4506 150.734,60.4506 149,58.5C 148.667,58.8333 148.333,59.1667 148,59.5C 146.956,58.3774 146.29,57.0441 146,55.5C 142.848,58.2936 140.515,57.627 139,53.5C 137.484,56.0515 136.651,55.7181 136.5,52.5C 137.496,52.5858 138.329,52.2524 139,51.5C 140.717,52.4552 142.384,53.4552 144,54.5C 145.309,52.1088 146.309,52.1088 147,54.5C 148.333,53.8333 149.667,53.1667 151,52.5C 151.816,53.8228 152.983,54.4894 154.5,54.5 Z"/></g>
<g><path style="opacity:1" fill="#84c88a" d="M 126.5,54.5 C 127.748,55.3339 128.415,56.6672 128.5,58.5C 128.167,59.8333 127.833,61.1667 127.5,62.5C 126.52,59.9135 126.187,57.2469 126.5,54.5 Z"/></g>
<g><path style="opacity:1" fill="#fce074" d="M 51.5,52.5 C 50.2335,54.6943 50.2335,57.0276 51.5,59.5C 51.0431,60.2975 50.3764,60.6309 49.5,60.5C 49.1463,56.3628 49.6463,52.3628 51,48.5C 52.5106,49.564 52.6772,50.8974 51.5,52.5 Z"/></g>
<g><path style="opacity:1" fill="#91ce8b" d="M 129.5,55.5 C 131.379,55.3932 131.712,55.8932 130.5,57C 132.81,57.4966 135.143,57.6633 137.5,57.5C 137.785,59.288 137.452,60.9547 136.5,62.5C 135.41,61.273 134.076,60.4396 132.5,60C 133.696,59.3457 133.696,58.8457 132.5,58.5C 131.742,59.8114 130.742,60.3114 129.5,60C 129.966,58.7012 129.966,57.2012 129.5,55.5 Z"/></g>
<g><path style="opacity:1" fill="#69bebc" d="M 87.5,50.5 C 90.241,51.4394 92.241,53.2728 93.5,56C 92.944,56.3826 92.6107,56.8826 92.5,57.5C 91.7611,57.369 91.0944,57.5357 90.5,58C 92.2495,60.0859 93.5828,62.4192 94.5,65C 94.3333,66.5 93.5,67.3333 92,67.5C 89.385,66.2879 88.5516,66.9546 89.5,69.5C 88.7784,69.9175 88.2784,70.5842 88,71.5C 86.3093,69.2913 86.476,67.4579 88.5,66C 87.3094,65.3021 86.3094,64.4687 85.5,63.5C 85.1795,59.2849 86.5128,55.7849 89.5,53C 88.6195,52.2917 87.9528,51.4584 87.5,50.5 Z"/></g>
<g><path style="opacity:1" fill="#0f0f0f" d="M 49.5,61.5 C 51.5273,61.3379 53.5273,61.5045 55.5,62C 53.6183,62.1981 51.9516,62.6981 50.5,63.5C 49.8333,63.5 49.5,63.8333 49.5,64.5C 46.4816,64.3354 43.4816,64.502 40.5,65C 39.7476,65.6708 39.4142,66.5041 39.5,67.5C 38.5041,67.4142 37.6708,67.7476 37,68.5C 35.3635,71.6061 33.8635,74.7728 32.5,78C 32.5699,78.7648 32.9033,79.2648 33.5,79.5C 30.6058,89.6941 26.2724,99.1941 20.5,108C 14.7077,108.393 11.3744,105.56 10.5,99.5C 10.8333,98.8333 11.1667,98.1667 11.5,97.5C 13.6574,99.7918 15.8241,102.125 18,104.5C 18.3333,104.167 18.6667,103.833 19,103.5C 23.9312,91.54 28.7645,79.54 33.5,67.5C 28.9338,67.2132 24.2671,67.2132 19.5,67.5C 19.33,66.1779 19.6634,65.0113 20.5,64C 25.8517,63.4794 31.1851,62.8128 36.5,62C 37.09,60.7011 38.09,59.8678 39.5,59.5C 42.5709,61.18 45.9042,61.8467 49.5,61.5 Z"/></g>
<g><path style="opacity:1" fill="#e9e6d3" d="M 69.5,44.5 C 68.8333,47.5 68.1667,50.5 67.5,53.5C 63.4009,53.3666 59.7343,54.5333 56.5,57C 60.0036,55.8979 63.6703,55.0645 67.5,54.5C 66.8902,55.391 66.5569,56.391 66.5,57.5C 65.7611,57.369 65.0944,57.5357 64.5,58C 66.3987,62.1778 67.0653,66.6778 66.5,71.5C 68.0603,73.1294 67.727,74.296 65.5,75C 67.683,76.2047 69.0163,77.7047 69.5,79.5C 69.7678,81.099 69.4345,82.4324 68.5,83.5C 66.5887,82.925 64.922,81.925 63.5,80.5C 62.8333,79.1667 61.8333,78.1667 60.5,77.5C 60.0472,76.5416 59.3805,75.7083 58.5,75C 58.8333,74.6667 59.1667,74.3333 59.5,74C 56.2374,73.1305 55.9041,71.7972 58.5,70C 56.9052,70.6171 55.5719,70.2837 54.5,69C 57.277,66.8266 57.1103,66.3266 54,67.5C 53.5838,65.4497 52.4171,64.1164 50.5,63.5C 51.9516,62.6981 53.6183,62.1981 55.5,62C 53.5273,61.5045 51.5273,61.3379 49.5,61.5C 49.5,61.1667 49.5,60.8333 49.5,60.5C 50.3764,60.6309 51.0431,60.2975 51.5,59.5C 50.2335,57.0276 50.2335,54.6943 51.5,52.5C 56.6566,48.0283 62.6566,45.3617 69.5,44.5 Z"/></g>
<g><path style="opacity:1" fill="#98ed92" d="M 80.5,58.5 C 81.1098,59.391 81.4431,60.391 81.5,61.5C 76.8215,61.6658 72.1548,61.4992 67.5,61C 68.1667,60.3333 68.8333,59.6667 69.5,59C 73.1516,58.5014 76.8183,58.3347 80.5,58.5 Z"/></g>
<g><path style="opacity:1" fill="#68bea0" d="M 115.5,53.5 C 115.936,57.1535 115.936,60.8202 115.5,64.5C 115.291,63.0783 114.791,61.745 114,60.5C 109.923,62.8773 107.423,61.544 106.5,56.5C 108.985,55.7399 108.985,54.7399 106.5,53.5C 106.328,52.5084 106.662,51.8417 107.5,51.5C 108.479,52.7653 109.479,54.0986 110.5,55.5C 111.251,54.624 111.751,53.624 112,52.5C 112.308,53.3081 112.808,53.9747 113.5,54.5C 114.281,53.2713 114.781,51.938 115,50.5C 115.483,51.448 115.649,52.448 115.5,53.5 Z"/></g>
<g><path style="opacity:1" fill="#a7ea88" d="M 159.5,51.5 C 159.833,51.5 160.167,51.5 160.5,51.5C 160.185,53.2259 160.019,54.8925 160,56.5C 164.162,58.8194 167.995,61.4861 171.5,64.5C 169.167,65.1667 166.833,65.8333 164.5,66.5C 162.127,65.7057 159.794,64.7057 157.5,63.5C 157.167,63 156.833,62.5 156.5,62C 158.495,60.3582 158.495,58.5249 156.5,56.5C 156.5,56.1667 156.5,55.8333 156.5,55.5C 158.446,54.9653 159.446,53.632 159.5,51.5 Z"/></g>
<g><path style="opacity:1" fill="#b1e766" d="M 66.5,57.5 C 71.1667,57.5 75.8333,57.5 80.5,57.5C 80.5,57.8333 80.5,58.1667 80.5,58.5C 76.8183,58.3347 73.1516,58.5014 69.5,59C 68.8333,59.6667 68.1667,60.3333 67.5,61C 72.1548,61.4992 76.8215,61.6658 81.5,61.5C 81.8588,63.371 82.8588,64.871 84.5,66C 83.944,66.3826 83.6107,66.8826 83.5,67.5C 81.283,66.6314 78.9496,66.298 76.5,66.5C 73.8127,66.3359 71.146,66.5026 68.5,67C 67.1667,67.6667 67.1667,68.3333 68.5,69C 70.4406,69.7429 72.2739,69.5762 74,68.5C 74.7504,69.1258 75.5838,69.6258 76.5,70C 73.262,70.9584 69.9287,71.4584 66.5,71.5C 67.0653,66.6778 66.3987,62.1778 64.5,58C 65.0944,57.5357 65.7611,57.369 66.5,57.5 Z"/></g>
<g><path style="opacity:1" fill="#a7eea3" d="M 68.5,62.5 C 72.5443,61.9579 76.211,62.7912 79.5,65C 75.5528,64.7025 71.7195,64.8692 68,65.5C 67.5304,64.4232 67.6971,63.4232 68.5,62.5 Z"/></g>
<g><path style="opacity:1" fill="#86c090" d="M 134.5,73.5 C 133.041,73.4326 131.708,73.7659 130.5,74.5C 130.773,72.549 130.107,71.049 128.5,70C 130.291,69.5848 131.624,68.5848 132.5,67C 130.956,67.4866 129.29,67.9866 127.5,68.5C 127.719,69.675 127.386,70.675 126.5,71.5C 126.167,70.8333 125.833,70.1667 125.5,69.5C 124.914,69.7093 124.414,70.0426 124,70.5C 123.544,69.2559 124.044,68.4226 125.5,68C 124.692,67.6924 124.025,67.1924 123.5,66.5C 124.948,65.6461 126.281,64.6461 127.5,63.5C 129.179,65.1045 131.179,65.7711 133.5,65.5C 133.567,67.4008 133.233,69.2341 132.5,71C 133.056,72.0111 133.722,72.8444 134.5,73.5 Z"/></g>
<g><path style="opacity:1" fill="#fae283" d="M 50.5,63.5 C 52.4171,64.1164 53.5838,65.4497 54,67.5C 57.1103,66.3266 57.277,66.8266 54.5,69C 55.5719,70.2837 56.9052,70.6171 58.5,70C 55.9041,71.7972 56.2374,73.1305 59.5,74C 59.1667,74.3333 58.8333,74.6667 58.5,75C 59.3805,75.7083 60.0472,76.5416 60.5,77.5C 57.5757,77.8976 55.2424,79.231 53.5,81.5C 51.6608,75.9745 50.3275,70.3078 49.5,64.5C 49.5,63.8333 49.8333,63.5 50.5,63.5 Z"/></g>
<g><path style="opacity:1" fill="#95e18b" d="M 76.5,66.5 C 77.64,67.8014 78.9733,68.9681 80.5,70C 79.5,70.3333 78.5,70.6667 77.5,71C 79.2852,72.1628 81.2852,72.8295 83.5,73C 74.1939,75.4608 74.1939,76.2941 83.5,75.5C 84.5,76.1667 85.5,76.8333 86.5,77.5C 84.0532,77.615 82.0532,78.615 80.5,80.5C 78.8621,81.1589 77.1955,81.8256 75.5,82.5C 74.479,81.9984 74.3123,81.3317 75,80.5C 76.4194,79.5399 77.9194,78.7065 79.5,78C 77.3049,77.5906 75.3049,78.0906 73.5,79.5C 72.0387,78.3143 70.7054,78.3143 69.5,79.5C 69.0163,77.7047 67.683,76.2047 65.5,75C 67.727,74.296 68.0603,73.1294 66.5,71.5C 69.9287,71.4584 73.262,70.9584 76.5,70C 75.5838,69.6258 74.7504,69.1258 74,68.5C 72.2739,69.5762 70.4406,69.7429 68.5,69C 67.1667,68.3333 67.1667,67.6667 68.5,67C 71.146,66.5026 73.8127,66.3359 76.5,66.5 Z"/></g>
<g><path style="opacity:1" fill="#37a9b1" d="M 85.5,63.5 C 86.3094,64.4687 87.3094,65.3021 88.5,66C 86.476,67.4579 86.3093,69.2913 88,71.5C 88.2784,70.5842 88.7784,69.9175 89.5,69.5C 91.6965,68.7575 93.6965,68.4241 95.5,68.5C 95.8333,69.8333 96.1667,71.1667 96.5,72.5C 94.4604,72.1024 92.4604,71.9358 90.5,72C 93.0782,74.1567 93.0782,75.3233 90.5,75.5C 90.7923,77.3558 90.7923,79.0224 90.5,80.5C 90.9863,82.8067 90.9863,84.9734 90.5,87C 91.1667,87.3333 91.8333,87.6667 92.5,88C 91.7476,88.6708 91.4142,89.5041 91.5,90.5C 90.8333,90.5 90.1667,90.5 89.5,90.5C 89.5,89.8333 89.1667,89.5 88.5,89.5C 88.8271,87.5122 89.1604,85.5122 89.5,83.5C 89.5328,80.8984 88.5328,78.8984 86.5,77.5C 85.5,76.8333 84.5,76.1667 83.5,75.5C 84.6491,75.2089 85.3158,74.3756 85.5,73C 85.5267,70.36 84.1934,69.0266 81.5,69C 82.0944,68.5357 82.7611,68.369 83.5,68.5C 85.256,67.4479 85.9227,65.7812 85.5,63.5 Z"/></g>
<g><path style="opacity:1" fill="#74e95f" d="M 76.5,66.5 C 78.9496,66.298 81.283,66.6314 83.5,67.5C 83.5,67.8333 83.5,68.1667 83.5,68.5C 82.7611,68.369 82.0944,68.5357 81.5,69C 84.1934,69.0266 85.5267,70.36 85.5,73C 85.3158,74.3756 84.6491,75.2089 83.5,75.5C 74.1939,76.2941 74.1939,75.4608 83.5,73C 81.2852,72.8295 79.2852,72.1628 77.5,71C 78.5,70.6667 79.5,70.3333 80.5,70C 78.9733,68.9681 77.64,67.8014 76.5,66.5 Z"/></g>
<g><path style="opacity:1" fill="#77be91" d="M 103.5,72.5 C 102.292,71.7659 100.959,71.4326 99.5,71.5C 99.6545,74.716 98.6545,77.3826 96.5,79.5C 96.2942,77.4508 95.4609,77.1175 94,78.5C 92.2215,76.9826 92.7215,76.1492 95.5,76C 93.042,74.2669 93.3753,73.1002 96.5,72.5C 96.1667,71.1667 95.8333,69.8333 95.5,68.5C 96.1211,65.8787 97.7877,64.212 100.5,63.5C 102.003,64.0522 103.669,64.0522 105.5,63.5C 105.5,64.8333 105.5,66.1667 105.5,67.5C 104.448,67.3505 103.448,67.5172 102.5,68C 103.743,69.1545 104.743,70.4878 105.5,72C 104.906,72.4643 104.239,72.631 103.5,72.5 Z"/></g>
<g><path style="opacity:1" fill="#2c9fb1" d="M 150.5,70.5 C 151.609,70.5569 152.609,70.8902 153.5,71.5C 153.951,75.7258 156.284,77.5592 160.5,77C 157.864,75.5902 157.197,73.7569 158.5,71.5C 159.609,72.29 160.942,72.79 162.5,73C 161.655,74.5581 162.321,75.5581 164.5,76C 161.736,77.544 161.903,78.7107 165,79.5C 165.236,77.8807 166.069,76.8807 167.5,76.5C 165.675,81.986 163.675,87.3194 161.5,92.5C 160.319,90.9328 158.653,90.0995 156.5,90C 157.167,89.6667 157.833,89.3333 158.5,89C 157.307,87.9054 155.973,87.072 154.5,86.5C 154.565,86.0618 154.399,85.7284 154,85.5C 152.601,86.2266 151.101,86.7266 149.5,87C 150.056,87.3826 150.389,87.8826 150.5,88.5C 149.504,88.4142 148.671,88.7476 148,89.5C 147.026,87.1224 146.359,87.4557 146,90.5C 143.146,92.5977 140.479,94.931 138,97.5C 138.679,94.2801 139.845,91.1134 141.5,88C 140.941,85.8125 139.607,85.1458 137.5,86C 134.627,89.5772 132.127,93.4106 130,97.5C 125.174,103.244 123.841,102.577 126,95.5C 127.979,91.0435 130.813,87.2102 134.5,84C 136.473,83.5045 138.473,83.3379 140.5,83.5C 140.241,79.9319 138.241,78.5985 134.5,79.5C 135.868,78.6937 137.201,77.6937 138.5,76.5C 141.344,77.172 144.01,78.172 146.5,79.5C 147.705,81.1376 149.038,81.4709 150.5,80.5C 151.338,80.1583 151.672,79.4916 151.5,78.5C 152.598,77.3991 152.765,76.0657 152,74.5C 151.23,73.4019 150.397,73.4019 149.5,74.5C 149.833,73.1667 150.167,71.8333 150.5,70.5 Z"/></g>
<g><path style="opacity:1" fill="#505050" d="M 39.5,67.5 C 37.4673,71.5653 35.4673,75.5653 33.5,79.5C 32.9033,79.2648 32.5699,78.7648 32.5,78C 33.8635,74.7728 35.3635,71.6061 37,68.5C 37.6708,67.7476 38.5041,67.4142 39.5,67.5 Z"/></g>
<g><path style="opacity:1" fill="#80cc81" d="M 150.5,70.5 C 150.167,71.8333 149.833,73.1667 149.5,74.5C 148.85,74.8039 148.183,75.1373 147.5,75.5C 147.598,74.3839 147.098,73.3839 146,72.5C 144.348,72.1402 142.682,71.8068 141,71.5C 140,72.8333 139,74.1667 138,75.5C 137.333,74.1667 136.667,74.1667 136,75.5C 135.251,74.365 135.417,73.365 136.5,72.5C 137.396,73.5063 138.062,73.5063 138.5,72.5C 137.975,71.8076 137.308,71.3076 136.5,71C 138.5,70.6667 140.5,70.3333 142.5,70C 139.27,69.4684 136.27,69.8018 133.5,71C 134.167,69 134.833,67 135.5,65C 134.552,64.5172 133.552,64.3505 132.5,64.5C 132.281,63.325 132.614,62.325 133.5,61.5C 135.556,63.0194 137.89,63.8528 140.5,64C 139.483,65.0495 139.316,66.2161 140,67.5C 143.168,64.7215 146.001,65.0548 148.5,68.5C 146.996,71.5056 147.663,72.1723 150.5,70.5 Z"/></g>
<g><path style="opacity:1" fill="#0c120d" d="M 103.5,72.5 C 103.5,72.8333 103.5,73.1667 103.5,73.5C 101.592,76.3116 99.9252,79.3116 98.5,82.5C 98.1667,82.5 97.8333,82.5 97.5,82.5C 96.596,81.791 96.2627,80.791 96.5,79.5C 98.6545,77.3826 99.6545,74.716 99.5,71.5C 100.959,71.4326 102.292,71.7659 103.5,72.5 Z"/></g>
<g><path style="opacity:1" fill="#f4dd69" d="M 151.5,78.5 C 150.127,78.6567 148.793,78.49 147.5,78C 149.124,75.9815 150.457,76.1481 151.5,78.5 Z"/></g>
<g><path style="opacity:1" fill="#88e673" d="M 177.5,69.5 C 178.833,71.5 180.5,73.1667 182.5,74.5C 184.11,78.1004 186.11,81.4338 188.5,84.5C 187.488,85.8717 186.488,87.205 185.5,88.5C 185.294,86.4508 184.461,86.1175 183,87.5C 183.109,86.2312 182.942,85.2312 182.5,84.5C 182.5,83.5 182.5,82.5 182.5,81.5C 181.167,81.5 179.833,81.5 178.5,81.5C 176.668,80.7515 175.001,79.7515 173.5,78.5C 174.042,75.0878 175.375,72.0878 177.5,69.5 Z"/></g>
<g><path style="opacity:1" fill="#97cf7b" d="M 96.5,72.5 C 93.3753,73.1002 93.042,74.2669 95.5,76C 92.7215,76.1492 92.2215,76.9826 94,78.5C 95.4609,77.1175 96.2942,77.4508 96.5,79.5C 94.3523,79.3894 94.019,80.056 95.5,81.5C 94.2954,83.1376 92.9621,83.4709 91.5,82.5C 94.1306,80.9954 93.7973,80.3287 90.5,80.5C 90.7923,79.0224 90.7923,77.3558 90.5,75.5C 93.0782,75.3233 93.0782,74.1567 90.5,72C 92.4604,71.9358 94.4604,72.1024 96.5,72.5 Z"/></g>
<g><path style="opacity:1" fill="#f5e395" d="M 60.5,77.5 C 61.8333,78.1667 62.8333,79.1667 63.5,80.5C 60.883,81.7859 58.5496,83.4525 56.5,85.5C 56.1667,85.5 55.8333,85.5 55.5,85.5C 54.4265,84.7494 54.2599,83.7494 55,82.5C 56.8119,80.6997 58.6452,79.0331 60.5,77.5 Z"/></g>
<g><path style="opacity:1" fill="#141414" d="M 219.5,79.5 C 220.95,84.3024 222.284,89.3024 223.5,94.5C 226.329,93.2533 228.995,91.7533 231.5,90C 232.916,87.1651 234.583,84.4985 236.5,82C 237.793,81.51 239.127,81.3433 240.5,81.5C 232.88,99.77 234.88,100.937 246.5,85C 247.793,84.51 249.127,84.3433 250.5,84.5C 249.63,88.6266 248.796,92.6266 248,96.5C 250.667,93.8333 253.333,91.1667 256,88.5C 256.167,88.8333 256.333,89.1667 256.5,89.5C 253.844,95.3693 249.51,98.5359 243.5,99C 242.751,97.2663 242.251,95.433 242,93.5C 239.451,98.0214 235.617,100.355 230.5,100.5C 230.663,98.1432 230.497,95.8098 230,93.5C 228.172,95.0814 226.172,96.4147 224,97.5C 224.436,102.743 222.936,107.243 219.5,111C 214.257,113.759 210.59,112.426 208.5,107C 208.862,105.775 209.362,104.609 210,103.5C 213.193,101.301 216.026,98.801 218.5,96C 216.683,91.6446 216.183,87.1446 217,82.5C 217.698,81.3094 218.531,80.3094 219.5,79.5 Z"/></g>
<g><path style="opacity:1" fill="#60b896" d="M 80.5,80.5 C 80.6716,81.4916 80.3382,82.1583 79.5,82.5C 77.4214,82.9707 75.4214,83.6373 73.5,84.5C 73.5,82.8333 73.5,81.1667 73.5,79.5C 75.3049,78.0906 77.3049,77.5906 79.5,78C 77.9194,78.7065 76.4194,79.5399 75,80.5C 74.3123,81.3317 74.479,81.9984 75.5,82.5C 77.1955,81.8256 78.8621,81.1589 80.5,80.5 Z"/></g>
<g><path style="opacity:1" fill="#69af8b" d="M 103.5,73.5 C 104.75,73.5774 105.583,74.244 106,75.5C 106.333,74.8333 106.667,74.1667 107,73.5C 108.934,75.4188 108.767,76.9188 106.5,78C 106.728,78.3988 107.062,78.5654 107.5,78.5C 105.377,83.3674 103.543,88.3674 102,93.5C 100.333,94.8333 98.6667,96.1667 97,97.5C 96.3076,96.9747 95.8076,96.3081 95.5,95.5C 96.5587,92.3821 97.8921,89.3821 99.5,86.5C 99.1373,85.8165 98.8039,85.1499 98.5,84.5C 100.343,85.0428 102.01,84.3761 103.5,82.5C 102.279,78.6607 101.612,78.6607 101.5,82.5C 100.5,82.5 99.5,82.5 98.5,82.5C 99.9252,79.3116 101.592,76.3116 103.5,73.5 Z"/></g>
<g><path style="opacity:1" fill="#b9d4d1" d="M 60.5,77.5 C 58.6452,79.0331 56.8119,80.6997 55,82.5C 54.2599,83.7494 54.4265,84.7494 55.5,85.5C 52.4853,90.1778 48.8186,94.1778 44.5,97.5C 45.9544,91.2539 48.9544,85.9206 53.5,81.5C 55.2424,79.231 57.5757,77.8976 60.5,77.5 Z"/></g>
<g><path style="opacity:1" fill="#121413" d="M 205.5,82.5 C 203.665,83.1223 202.498,84.4556 202,86.5C 200.833,90 199.667,93.5 198.5,97C 198.57,97.7648 198.903,98.2648 199.5,98.5C 198.532,101.445 198.366,104.445 199,107.5C 204.377,101.792 209.377,95.7921 214,89.5C 214.667,90.5 214.667,91.5 214,92.5C 209.287,98.7574 204.454,104.924 199.5,111C 196.128,112.122 194.128,110.955 193.5,107.5C 193.5,105.167 193.5,102.833 193.5,100.5C 194.905,98.7749 195.405,96.7749 195,94.5C 193.955,95.3734 193.122,96.3734 192.5,97.5C 191.5,97.8333 190.833,98.5 190.5,99.5C 185.633,100.467 183.466,98.4669 184,93.5C 183.283,94.0442 182.783,94.7109 182.5,95.5C 180.258,98.4558 177.258,100.122 173.5,100.5C 173.167,100.5 172.833,100.5 172.5,100.5C 171.919,93.3344 173.919,87.0011 178.5,81.5C 179.833,81.5 181.167,81.5 182.5,81.5C 182.5,82.5 182.5,83.5 182.5,84.5C 181.599,85.2905 180.932,86.2905 180.5,87.5C 179.213,90.0748 177.879,92.7415 176.5,95.5C 176.808,96.3081 177.308,96.9747 178,97.5C 179.707,95.9625 181.207,94.2959 182.5,92.5C 183.488,91.205 184.488,89.8717 185.5,88.5C 186.488,87.205 187.488,85.8717 188.5,84.5C 189.833,84.5 191.167,84.5 192.5,84.5C 192.007,86.8056 191.674,89.139 191.5,91.5C 189.623,92.6591 189.123,94.3258 190,96.5C 190.717,95.9558 191.217,95.2891 191.5,94.5C 193.463,93.0401 195.296,91.3734 197,89.5C 198.422,84.8246 200.255,80.3246 202.5,76C 198.167,75.6667 193.833,75.3333 189.5,75C 194.091,73.9474 198.758,73.114 203.5,72.5C 205.294,67.7395 207.96,63.5728 211.5,60C 213.134,59.5065 214.801,59.3398 216.5,59.5C 214.451,63.9274 212.118,68.2608 209.5,72.5C 212.107,73.3184 214.774,73.8184 217.5,74C 214.381,75.4051 211.048,75.9051 207.5,75.5C 207.233,77.9653 206.566,80.2986 205.5,82.5 Z"/></g>
<g><path style="opacity:1" fill="#ced7a4" d="M 63.5,80.5 C 62.0484,82.7742 62.715,84.2742 65.5,85C 64.0422,87.46 62.2089,89.6266 60,91.5C 59.6174,90.944 59.1174,90.6107 58.5,90.5C 59.9895,88.0517 59.3229,86.3851 56.5,85.5C 58.5496,83.4525 60.883,81.7859 63.5,80.5 Z"/></g>
<g><path style="opacity:1" fill="#0e1211" d="M 178.5,61.5 C 178.833,61.5 179.167,61.5 179.5,61.5C 179.923,62.2646 180.257,63.0979 180.5,64C 179.259,65.7309 178.259,67.5642 177.5,69.5C 175.375,72.0878 174.042,75.0878 173.5,78.5C 169.705,85.0981 166.705,92.0981 164.5,99.5C 163.227,101.713 162.227,104.046 161.5,106.5C 160.5,106.833 159.833,107.5 159.5,108.5C 159.5,108.833 159.5,109.167 159.5,109.5C 154.739,111.29 151.072,109.956 148.5,105.5C 147.161,101.646 146.328,97.6459 146,93.5C 144.482,94.1634 143.315,95.1634 142.5,96.5C 136.835,100.18 133.835,105.513 133.5,112.5C 131.808,116.889 129.808,121.222 127.5,125.5C 123.987,127.131 120.987,126.464 118.5,123.5C 118.5,122.167 118.5,120.833 118.5,119.5C 118.833,118.167 119.167,116.833 119.5,115.5C 123.436,111.062 127.602,106.729 132,102.5C 133.513,99.9761 134.18,97.3094 134,94.5C 131.636,97.6902 129.136,100.69 126.5,103.5C 126.167,103.5 125.833,103.5 125.5,103.5C 122.163,102.516 120.663,100.183 121,96.5C 118.311,101.193 115.311,101.527 112,97.5C 111.544,94.4284 111.544,91.4284 112,88.5C 110.519,89.4709 109.685,90.8042 109.5,92.5C 108.163,93.3149 107.163,94.4815 106.5,96C 103.248,94.7185 101.248,95.8852 100.5,99.5C 98.8828,100.038 97.2161,100.371 95.5,100.5C 93.535,98.2318 92.3683,95.5651 92,92.5C 91.6174,93.056 91.1174,93.3893 90.5,93.5C 85.1451,96.3416 80.4785,100.175 76.5,105C 74.5878,105.279 73.2544,104.446 72.5,102.5C 75.2644,100.373 77.5977,97.706 79.5,94.5C 80.1667,93.5 80.8333,92.5 81.5,91.5C 83.6246,88.9122 84.9579,85.9122 85.5,82.5C 84.448,82.3505 83.448,82.5172 82.5,83C 79.9491,86.0444 77.6158,89.2111 75.5,92.5C 73.2417,95.3566 71.2417,98.3566 69.5,101.5C 68.3263,102.514 67.6596,103.847 67.5,105.5C 65.1022,109.403 63.7689,113.736 63.5,118.5C 62.6586,120.379 62.3253,122.379 62.5,124.5C 59.858,124.512 58.5246,123.179 58.5,120.5C 58.5,119.5 58.5,118.5 58.5,117.5C 59.5702,110.69 61.2369,104.023 63.5,97.5C 64.3657,95.856 64.8657,94.1893 65,92.5C 63.4815,93.1634 62.3149,94.1634 61.5,95.5C 55.4537,98.2152 52.1203,102.882 51.5,109.5C 50.6908,111.028 50.0241,112.694 49.5,114.5C 47.8303,119.339 45.497,123.839 42.5,128C 34.7537,128.923 32.2537,125.757 35,118.5C 38.9797,112.887 43.6463,107.887 49,103.5C 50.488,99.8737 51.488,96.2071 52,92.5C 48.8554,97.8096 44.3554,101.476 38.5,103.5C 36.2569,102.588 35.2569,100.922 35.5,98.5C 36.0337,92.7269 38.0337,87.5602 41.5,83C 43.0738,82.3013 44.4071,82.6346 45.5,84C 43.1147,88.4854 41.1147,93.1521 39.5,98C 39.6301,99.0588 40.1301,99.8921 41,100.5C 42.5185,99.8366 43.6851,98.8366 44.5,97.5C 48.8186,94.1778 52.4853,90.1778 55.5,85.5C 55.8333,85.5 56.1667,85.5 56.5,85.5C 59.3229,86.3851 59.9895,88.0517 58.5,90.5C 58.5,90.8333 58.5,91.1667 58.5,91.5C 56.2918,92.9175 55.4585,94.9175 56,97.5C 57.3756,96.2949 58.5423,94.9616 59.5,93.5C 63.9551,91.3831 66.9551,88.0498 68.5,83.5C 69.4345,82.4324 69.7678,81.099 69.5,79.5C 70.7054,78.3143 72.0387,78.3143 73.5,79.5C 73.5,81.1667 73.5,82.8333 73.5,84.5C 72.7659,85.7079 72.4326,87.0413 72.5,88.5C 70.965,90.9388 70.1317,93.6055 70,96.5C 72.7834,93.5534 74.9501,90.22 76.5,86.5C 77.4884,85.205 78.4884,83.8717 79.5,82.5C 80.3382,82.1583 80.6716,81.4916 80.5,80.5C 82.0532,78.615 84.0532,77.615 86.5,77.5C 88.5328,78.8984 89.5328,80.8984 89.5,83.5C 89.1604,85.5122 88.8271,87.5122 88.5,89.5C 87.7326,90.172 87.0659,91.0053 86.5,92C 87.9976,92.5847 88.9976,92.0847 89.5,90.5C 90.1667,90.5 90.8333,90.5 91.5,90.5C 93.0101,88.678 94.3434,86.678 95.5,84.5C 96.5,84.5 97.5,84.5 98.5,84.5C 98.8039,85.1499 99.1373,85.8165 99.5,86.5C 97.8921,89.3821 96.5587,92.3821 95.5,95.5C 95.8076,96.3081 96.3076,96.9747 97,97.5C 98.6667,96.1667 100.333,94.8333 102,93.5C 103.543,88.3674 105.377,83.3674 107.5,78.5C 109.346,78.2222 110.68,78.8888 111.5,80.5C 108.113,83.8324 106.613,87.8324 107,92.5C 109.783,88.0493 112.95,83.8826 116.5,80C 117.784,79.3162 118.951,79.4829 120,80.5C 117.751,85.4929 116.418,90.8262 116,96.5C 120.711,93.2902 124.544,89.2902 127.5,84.5C 129.573,82.4202 131.907,80.7536 134.5,79.5C 138.241,78.5985 140.241,79.9319 140.5,83.5C 138.473,83.3379 136.473,83.5045 134.5,84C 130.813,87.2102 127.979,91.0435 126,95.5C 123.841,102.577 125.174,103.244 130,97.5C 132.127,93.4106 134.627,89.5772 137.5,86C 139.607,85.1458 140.941,85.8125 141.5,88C 139.845,91.1134 138.679,94.2801 138,97.5C 140.479,94.931 143.146,92.5977 146,90.5C 146.359,87.4557 147.026,87.1224 148,89.5C 148.671,88.7476 149.504,88.4142 150.5,88.5C 148.196,92.3992 148.196,96.3992 150.5,100.5C 150.299,104.36 151.965,106.194 155.5,106C 158.181,101.785 160.181,97.2845 161.5,92.5C 163.675,87.3194 165.675,81.986 167.5,76.5C 168.338,76.1583 168.672,75.4916 168.5,74.5C 169.693,71.9476 171.027,69.4476 172.5,67C 169.935,66.3911 167.601,66.8911 165.5,68.5C 162.881,68.9255 160.547,69.9255 158.5,71.5C 157.197,73.7569 157.864,75.5902 160.5,77C 156.284,77.5592 153.951,75.7258 153.5,71.5C 156.964,69.2408 160.631,67.5742 164.5,66.5C 166.833,65.8333 169.167,65.1667 171.5,64.5C 173.98,63.758 176.313,62.758 178.5,61.5 Z"/></g>
<g><path style="opacity:1" fill="#a7dc7b" d="M 79.5,82.5 C 78.4884,83.8717 77.4884,85.205 76.5,86.5C 74.3639,86.5379 73.0306,87.2046 72.5,88.5C 72.4326,87.0413 72.7659,85.7079 73.5,84.5C 75.4214,83.6373 77.4214,82.9707 79.5,82.5 Z"/></g>
<g><path style="opacity:1" fill="#92cf76" d="M 98.5,84.5 C 97.5,84.5 96.5,84.5 95.5,84.5C 96.1667,83.8333 96.8333,83.1667 97.5,82.5C 97.8333,82.5 98.1667,82.5 98.5,82.5C 99.5,82.5 100.5,82.5 101.5,82.5C 101.612,78.6607 102.279,78.6607 103.5,82.5C 102.01,84.3761 100.343,85.0428 98.5,84.5 Z"/></g>
<g><path style="opacity:1" fill="#5ab195" d="M 96.5,79.5 C 96.2627,80.791 96.596,81.791 97.5,82.5C 96.8333,83.1667 96.1667,83.8333 95.5,84.5C 94.3434,86.678 93.0101,88.678 91.5,90.5C 91.4142,89.5041 91.7476,88.6708 92.5,88C 91.8333,87.6667 91.1667,87.3333 90.5,87C 90.9863,84.9734 90.9863,82.8067 90.5,80.5C 93.7973,80.3287 94.1306,80.9954 91.5,82.5C 92.9621,83.4709 94.2954,83.1376 95.5,81.5C 94.019,80.056 94.3523,79.3894 96.5,79.5 Z"/></g>
<g><path style="opacity:1" fill="#eede74" d="M 146.5,79.5 C 148.099,79.2322 149.432,79.5655 150.5,80.5C 149.038,81.4709 147.705,81.1376 146.5,79.5 Z"/></g>
<g><path style="opacity:1" fill="#57c09a" d="M 165.5,68.5 C 165.489,70.0174 164.823,71.1841 163.5,72C 169.235,71.1062 169.568,71.7729 164.5,74C 165.793,74.49 167.127,74.6567 168.5,74.5C 168.672,75.4916 168.338,76.1583 167.5,76.5C 166.069,76.8807 165.236,77.8807 165,79.5C 161.903,78.7107 161.736,77.544 164.5,76C 162.321,75.5581 161.655,74.5581 162.5,73C 160.942,72.79 159.609,72.29 158.5,71.5C 160.547,69.9255 162.881,68.9255 165.5,68.5 Z"/></g>
<g><path style="opacity:1" fill="#8cdb79" d="M 168.5,74.5 C 167.127,74.6567 165.793,74.49 164.5,74C 169.568,71.7729 169.235,71.1062 163.5,72C 164.823,71.1841 165.489,70.0174 165.5,68.5C 167.601,66.8911 169.935,66.3911 172.5,67C 171.027,69.4476 169.693,71.9476 168.5,74.5 Z"/></g>
<g><path style="opacity:1" fill="#d2e5d4" d="M 182.5,84.5 C 182.942,85.2312 183.109,86.2312 183,87.5C 184.461,86.1175 185.294,86.4508 185.5,88.5C 184.488,89.8717 183.488,91.205 182.5,92.5C 181.069,91.2196 180.402,89.5529 180.5,87.5C 180.932,86.2905 181.599,85.2905 182.5,84.5 Z"/></g>
<g><path style="opacity:1" fill="#4eb0bd" d="M 173.5,78.5 C 175.001,79.7515 176.668,80.7515 178.5,81.5C 173.919,87.0011 171.919,93.3344 172.5,100.5C 169.873,99.9084 167.206,99.5751 164.5,99.5C 166.705,92.0981 169.705,85.0981 173.5,78.5 Z"/></g>
<g><path style="opacity:1" fill="#8cd07b" d="M 81.5,91.5 C 80.8501,91.1961 80.1835,90.8627 79.5,90.5C 78.3777,91.6302 77.0443,92.2969 75.5,92.5C 77.6158,89.2111 79.9491,86.0444 82.5,83C 83.448,82.5172 84.448,82.3505 85.5,82.5C 84.9579,85.9122 83.6246,88.9122 81.5,91.5 Z"/></g>
<g><path style="opacity:1" fill="#e6d886" d="M 63.5,80.5 C 64.922,81.925 66.5887,82.925 68.5,83.5C 66.9551,88.0498 63.9551,91.3831 59.5,93.5C 58.6618,93.1583 58.3284,92.4916 58.5,91.5C 58.5,91.1667 58.5,90.8333 58.5,90.5C 59.1174,90.6107 59.6174,90.944 60,91.5C 62.2089,89.6266 64.0422,87.46 65.5,85C 62.715,84.2742 62.0484,82.7742 63.5,80.5 Z"/></g>
<g><path style="opacity:1" fill="#c2c17d" d="M 76.5,86.5 C 74.9501,90.22 72.7834,93.5534 70,96.5C 70.1317,93.6055 70.965,90.9388 72.5,88.5C 73.0306,87.2046 74.3639,86.5379 76.5,86.5 Z"/></g>
<g><path style="opacity:1" fill="#c5b65e" d="M 88.5,89.5 C 89.1667,89.5 89.5,89.8333 89.5,90.5C 88.9976,92.0847 87.9976,92.5847 86.5,92C 87.0659,91.0053 87.7326,90.172 88.5,89.5 Z"/></g>
<g><path style="opacity:1" fill="#535353" d="M 205.5,82.5 C 203.303,87.7558 201.303,93.0891 199.5,98.5C 198.903,98.2648 198.57,97.7648 198.5,97C 199.667,93.5 200.833,90 202,86.5C 202.498,84.4556 203.665,83.1223 205.5,82.5 Z"/></g>
<g><path style="opacity:1" fill="#59b1a7" d="M 154.5,86.5 C 154.083,89.0792 154.75,91.2458 156.5,93C 154.114,93.2835 153.448,94.2835 154.5,96C 153.027,96.7096 152.36,97.8762 152.5,99.5C 153.552,99.3505 154.552,99.5172 155.5,100C 153.866,100.494 152.199,100.66 150.5,100.5C 148.196,96.3992 148.196,92.3992 150.5,88.5C 150.389,87.8826 150.056,87.3826 149.5,87C 151.101,86.7266 152.601,86.2266 154,85.5C 154.399,85.7284 154.565,86.0618 154.5,86.5 Z"/></g>
<g><path style="opacity:1" fill="#d1d0d0" d="M 58.5,91.5 C 58.3284,92.4916 58.6618,93.1583 59.5,93.5C 58.5423,94.9616 57.3756,96.2949 56,97.5C 55.4585,94.9175 56.2918,92.9175 58.5,91.5 Z"/></g>
<g><path style="opacity:1" fill="#45a2b2" d="M 180.5,87.5 C 180.402,89.5529 181.069,91.2196 182.5,92.5C 181.207,94.2959 179.707,95.9625 178,97.5C 177.308,96.9747 176.808,96.3081 176.5,95.5C 177.879,92.7415 179.213,90.0748 180.5,87.5 Z"/></g>
<g><path style="opacity:1" fill="#ddcc77" d="M 63.5,97.5 C 62.1667,97.5 61.5,96.8333 61.5,95.5C 62.3149,94.1634 63.4815,93.1634 65,92.5C 64.8657,94.1893 64.3657,95.856 63.5,97.5 Z"/></g>
<g><path style="opacity:1" fill="#97c392" d="M 191.5,91.5 C 191.5,92.5 191.5,93.5 191.5,94.5C 191.217,95.2891 190.717,95.9558 190,96.5C 189.123,94.3258 189.623,92.6591 191.5,91.5 Z"/></g>
<g><path style="opacity:1" fill="#d0dfe2" d="M 61.5,95.5 C 61.5,96.8333 62.1667,97.5 63.5,97.5C 61.2369,104.023 59.5702,110.69 58.5,117.5C 57.6942,116.003 57.0276,114.336 56.5,112.5C 57.5202,110.568 57.6869,108.568 57,106.5C 56.0124,109.424 55.3457,112.424 55,115.5C 54.6827,113.699 54.016,113.366 53,114.5C 51.9914,112.975 51.4914,111.308 51.5,109.5C 52.1203,102.882 55.4537,98.2152 61.5,95.5 Z"/></g>
<g><path style="opacity:1" fill="#42a097" d="M 95.5,100.5 C 94.4722,103.098 93.4722,103.098 92.5,100.5C 92.1166,98.5915 91.1166,97.0915 89.5,96C 90.2524,95.3292 90.5858,94.4959 90.5,93.5C 91.1174,93.3893 91.6174,93.056 92,92.5C 92.3683,95.5651 93.535,98.2318 95.5,100.5 Z"/></g>
<g><path style="opacity:1" fill="#cbd696" d="M 154.5,86.5 C 155.973,87.072 157.307,87.9054 158.5,89C 157.833,89.3333 157.167,89.6667 156.5,90C 158.653,90.0995 160.319,90.9328 161.5,92.5C 160.181,97.2845 158.181,101.785 155.5,106C 151.965,106.194 150.299,104.36 150.5,100.5C 152.199,100.66 153.866,100.494 155.5,100C 154.552,99.5172 153.552,99.3505 152.5,99.5C 152.36,97.8762 153.027,96.7096 154.5,96C 153.448,94.2835 154.114,93.2835 156.5,93C 154.75,91.2458 154.083,89.0792 154.5,86.5 Z"/></g>
<g><path style="opacity:1" fill="#c3c6c3" d="M 193.5,100.5 C 193.737,99.209 193.404,98.209 192.5,97.5C 193.122,96.3734 193.955,95.3734 195,94.5C 195.405,96.7749 194.905,98.7749 193.5,100.5 Z"/></g>
<g><path style="opacity:1" fill="#74b893" d="M 142.5,96.5 C 143.376,96.3691 144.043,96.7025 144.5,97.5C 141.656,98.1969 141.989,99.3636 145.5,101C 144.529,102.204 143.529,102.704 142.5,102.5C 144.421,103.324 145.754,104.657 146.5,106.5C 145.178,106.67 144.011,106.337 143,105.5C 144.253,109.671 143.253,110.338 140,107.5C 139,109.167 138,110.833 137,112.5C 135.442,111.655 134.442,112.321 134,114.5C 133.536,113.906 133.369,113.239 133.5,112.5C 133.835,105.513 136.835,100.18 142.5,96.5 Z"/></g>
<g><path style="opacity:1" fill="#1ba0b5" d="M 125.5,103.5 C 121.644,105.176 118.478,107.842 116,111.5C 114.846,109.043 113.512,109.043 112,111.5C 112.055,113.108 112.888,114.442 114.5,115.5C 116.102,114.45 116.935,115.117 117,117.5C 117.708,116.619 118.542,115.953 119.5,115.5C 119.167,116.833 118.833,118.167 118.5,119.5C 117.265,119.721 116.265,120.388 115.5,121.5C 114.914,121.291 114.414,120.957 114,120.5C 113.077,121.759 112.243,123.092 111.5,124.5C 110.269,123.349 110.269,122.183 111.5,121C 109.591,120.552 108.424,121.385 108,123.5C 107.667,122.833 107.333,122.167 107,121.5C 105.731,122.905 105.231,124.571 105.5,126.5C 103.774,126.815 102.107,126.981 100.5,127C 101.167,126.333 101.833,125.667 102.5,125C 102.619,123.719 102.119,122.552 101,121.5C 100.252,123.332 99.2515,124.999 98,126.5C 97.7811,125.062 97.2811,123.729 96.5,122.5C 95.8076,123.025 95.3076,123.692 95,124.5C 92.9885,121.9 93.1552,119.566 95.5,117.5C 96.791,117.737 97.791,117.404 98.5,116.5C 101.061,116.553 103.061,115.553 104.5,113.5C 103.833,112.833 103.167,112.167 102.5,111.5C 103.5,110.167 104.5,108.833 105.5,107.5C 104.418,107.251 103.085,107.085 101.5,107C 103.5,106.333 104.833,105 105.5,103C 104.833,102.667 104.167,102.333 103.5,102C 105.043,100.122 106.876,98.6217 109,97.5C 109.402,96.1279 109.902,94.7946 110.5,93.5C 110.376,92.8933 110.043,92.56 109.5,92.5C 109.685,90.8042 110.519,89.4709 112,88.5C 111.544,91.4284 111.544,94.4284 112,97.5C 115.311,101.527 118.311,101.193 121,96.5C 120.663,100.183 122.163,102.516 125.5,103.5 Z"/></g>
<g><path style="opacity:1" fill="#ebd773" d="M 81.5,91.5 C 80.8333,92.5 80.1667,93.5 79.5,94.5C 76.1847,96.8081 72.8514,99.1414 69.5,101.5C 71.2417,98.3566 73.2417,95.3566 75.5,92.5C 77.0443,92.2969 78.3777,91.6302 79.5,90.5C 80.1835,90.8627 80.8501,91.1961 81.5,91.5 Z"/></g>
<g><path style="opacity:1" fill="#92bb9c" d="M 79.5,94.5 C 77.5977,97.706 75.2644,100.373 72.5,102.5C 70.9731,102.427 69.9731,103.094 69.5,104.5C 68.8333,104.833 68.1667,105.167 67.5,105.5C 67.6596,103.847 68.3263,102.514 69.5,101.5C 72.8514,99.1414 76.1847,96.8081 79.5,94.5 Z"/></g>
<g><path style="opacity:1" fill="#98e593" d="M 192.5,97.5 C 193.404,98.209 193.737,99.209 193.5,100.5C 193.5,102.833 193.5,105.167 193.5,107.5C 193.167,107.5 192.833,107.5 192.5,107.5C 192.649,106.448 192.483,105.448 192,104.5C 191.163,106.844 189.829,108.844 188,110.5C 188.642,108.193 189.642,105.859 191,103.5C 191.765,101.934 191.598,100.601 190.5,99.5C 190.833,98.5 191.5,97.8333 192.5,97.5 Z"/></g>
<g><path style="opacity:1" fill="#e2e2e2" d="M 217.5,100.5 C 218.969,105.52 216.969,108.186 211.5,108.5C 212.345,104.985 214.345,102.319 217.5,100.5 Z"/></g>
<g><path style="opacity:1" fill="#d4d974" d="M 90.5,93.5 C 90.5858,94.4959 90.2524,95.3292 89.5,96C 91.1166,97.0915 92.1166,98.5915 92.5,100.5C 92.4894,102.017 91.8228,103.184 90.5,104C 91.9594,103.645 93.2928,103.811 94.5,104.5C 95.6935,105.272 96.6935,106.272 97.5,107.5C 96.5,107.833 95.8333,108.5 95.5,109.5C 93.4131,110.585 92.0798,112.251 91.5,114.5C 90.8333,114.833 90.1667,115.167 89.5,115.5C 88.1667,115.5 87.5,114.833 87.5,113.5C 86.7824,111.754 85.7824,111.088 84.5,111.5C 85.3467,110.155 86.5134,109.155 88,108.5C 88.6667,107.833 88.6667,107.167 88,106.5C 86.8455,107.743 85.5122,108.743 84,109.5C 83.5172,110.448 83.3505,111.448 83.5,112.5C 81.8908,112.906 80.5575,112.906 79.5,112.5C 80.93,109.567 82.93,107.067 85.5,105C 82.8192,106.113 80.1526,107.613 77.5,109.5C 77.0894,108.738 76.9227,107.738 77,106.5C 76.3109,107.357 75.4776,108.023 74.5,108.5C 72.5808,107.388 70.9142,106.054 69.5,104.5C 69.9731,103.094 70.9731,102.427 72.5,102.5C 73.2544,104.446 74.5878,105.279 76.5,105C 80.4785,100.175 85.1451,96.3416 90.5,93.5 Z"/></g>
<g><path style="opacity:1" fill="#8aca9c" d="M 100.5,99.5 C 98.5398,101.156 96.5398,102.823 94.5,104.5C 93.2928,103.811 91.9594,103.645 90.5,104C 91.8228,103.184 92.4894,102.017 92.5,100.5C 93.4722,103.098 94.4722,103.098 95.5,100.5C 97.2161,100.371 98.8828,100.038 100.5,99.5 Z"/></g>
<g><path style="opacity:1" fill="#5da387" d="M 119.5,115.5 C 121.425,111.246 123.758,107.246 126.5,103.5C 129.136,100.69 131.636,97.6902 134,94.5C 134.18,97.3094 133.513,99.9761 132,102.5C 127.602,106.729 123.436,111.062 119.5,115.5 Z"/></g>
<g><path style="opacity:1" fill="#d6edd5" d="M 190.5,99.5 C 191.598,100.601 191.765,101.934 191,103.5C 189.642,105.859 188.642,108.193 188,110.5C 189.829,108.844 191.163,106.844 192,104.5C 192.483,105.448 192.649,106.448 192.5,107.5C 191.644,111.883 189.31,115.216 185.5,117.5C 185.801,109.939 184.801,102.606 182.5,95.5C 182.783,94.7109 183.283,94.0442 184,93.5C 183.466,98.4669 185.633,100.467 190.5,99.5 Z"/></g>
<g><path style="opacity:1" fill="#c3dfdb" d="M 164.5,99.5 C 167.206,99.5751 169.873,99.9084 172.5,100.5C 172.833,100.5 173.167,100.5 173.5,100.5C 171.256,101.612 171.256,103.112 173.5,105C 173.167,105.333 172.833,105.667 172.5,106C 173.672,106.419 174.672,107.085 175.5,108C 170.74,109.668 166.074,109.835 161.5,108.5C 164.899,107.984 168.232,107.15 171.5,106C 168.2,106.046 164.866,106.212 161.5,106.5C 162.227,104.046 163.227,101.713 164.5,99.5 Z"/></g>
<g><path style="opacity:1" fill="#4baba3" d="M 148.5,105.5 C 147.833,105.833 147.167,106.167 146.5,106.5C 145.754,104.657 144.421,103.324 142.5,102.5C 143.529,102.704 144.529,102.204 145.5,101C 141.989,99.3636 141.656,98.1969 144.5,97.5C 144.043,96.7025 143.376,96.3691 142.5,96.5C 143.315,95.1634 144.482,94.1634 146,93.5C 146.328,97.6459 147.161,101.646 148.5,105.5 Z"/></g>
<g><path style="opacity:1" fill="#5fb79f" d="M 109.5,92.5 C 110.043,92.56 110.376,92.8933 110.5,93.5C 109.902,94.7946 109.402,96.1279 109,97.5C 106.876,98.6217 105.043,100.122 103.5,102C 104.167,102.333 104.833,102.667 105.5,103C 104.833,105 103.5,106.333 101.5,107C 103.085,107.085 104.418,107.251 105.5,107.5C 104.5,108.833 103.5,110.167 102.5,111.5C 103.167,112.167 103.833,112.833 104.5,113.5C 103.061,115.553 101.061,116.553 98.5,116.5C 99.6854,115.143 100.685,113.643 101.5,112C 101.164,110.97 100.497,110.47 99.5,110.5C 99.573,108.973 98.9063,107.973 97.5,107.5C 96.6935,106.272 95.6935,105.272 94.5,104.5C 96.5398,102.823 98.5398,101.156 100.5,99.5C 101.248,95.8852 103.248,94.7185 106.5,96C 107.163,94.4815 108.163,93.3149 109.5,92.5 Z"/></g>
<g><path style="opacity:1" fill="#98dfb0" d="M 161.5,108.5 C 160.833,108.5 160.167,108.5 159.5,108.5C 159.833,107.5 160.5,106.833 161.5,106.5C 164.866,106.212 168.2,106.046 171.5,106C 168.232,107.15 164.899,107.984 161.5,108.5 Z"/></g>
<g><path style="opacity:1" fill="#9bcd85" d="M 97.5,107.5 C 98.9063,107.973 99.573,108.973 99.5,110.5C 99.226,112.981 97.8927,114.647 95.5,115.5C 96.0476,113.606 97.0476,111.94 98.5,110.5C 97.675,109.614 96.675,109.281 95.5,109.5C 95.8333,108.5 96.5,107.833 97.5,107.5 Z"/></g>
<g><path style="opacity:1" fill="#d6d7d8" d="M 46.5,107.5 C 47.0967,107.735 47.4301,108.235 47.5,109C 45.5612,114.375 43.2278,119.542 40.5,124.5C 38.1923,125.948 36.859,125.282 36.5,122.5C 39.0394,116.962 42.3727,111.962 46.5,107.5 Z"/></g>
<g><path style="opacity:1" fill="#b8e0cb" d="M 69.5,104.5 C 70.9142,106.054 72.5808,107.388 74.5,108.5C 75.4776,108.023 76.3109,107.357 77,106.5C 76.9227,107.738 77.0894,108.738 77.5,109.5C 80.1526,107.613 82.8192,106.113 85.5,105C 82.93,107.067 80.93,109.567 79.5,112.5C 80.5575,112.906 81.8908,112.906 83.5,112.5C 83.3505,111.448 83.5172,110.448 84,109.5C 85.5122,108.743 86.8455,107.743 88,106.5C 88.6667,107.167 88.6667,107.833 88,108.5C 86.5134,109.155 85.3467,110.155 84.5,111.5C 85.7824,111.088 86.7824,111.754 87.5,113.5C 87.5,114.833 88.1667,115.5 89.5,115.5C 88.9447,117.729 87.6114,119.395 85.5,120.5C 84.7492,119.624 84.2492,118.624 84,117.5C 83.3878,120.032 81.8878,120.865 79.5,120C 81.0877,118.013 81.9211,115.846 82,113.5C 79.89,117.405 77.5567,121.072 75,124.5C 74.6667,122.833 74.3333,121.167 74,119.5C 72.8173,120.731 71.6507,120.731 70.5,119.5C 71.4279,118.232 71.5946,116.899 71,115.5C 68.9348,122.041 67.4348,121.708 66.5,114.5C 65.4793,115.901 64.4793,117.235 63.5,118.5C 63.7689,113.736 65.1022,109.403 67.5,105.5C 68.1667,105.167 68.8333,104.833 69.5,104.5 Z"/></g>
<g><path style="opacity:1" fill="#eaeded" d="M 177.5,111.5 C 172.172,114.538 166.839,114.871 161.5,112.5C 163.806,112.007 166.139,111.674 168.5,111.5C 171.673,110.632 174.673,110.632 177.5,111.5 Z"/></g>
<g><path style="opacity:1" fill="#7ec5a3" d="M 87.5,113.5 C 87.6615,111.176 88.8282,109.509 91,108.5C 90.9232,110.772 89.7565,112.438 87.5,113.5 Z"/></g>
<g><path style="opacity:1" fill="#6dbe91" d="M 95.5,109.5 C 94.9202,111.749 93.5869,113.415 91.5,114.5C 92.0798,112.251 93.4131,110.585 95.5,109.5 Z"/></g>
<g><path style="opacity:1" fill="#c7d893" d="M 148.5,105.5 C 151.072,109.956 154.739,111.29 159.5,109.5C 162.61,110.088 165.61,110.755 168.5,111.5C 166.139,111.674 163.806,112.007 161.5,112.5C 161.167,112.5 160.833,112.5 160.5,112.5C 159.448,112.351 158.448,112.517 157.5,113C 159.056,113.72 160.056,114.887 160.5,116.5C 157.5,115.833 154.5,115.167 151.5,114.5C 149.847,114.34 148.514,113.674 147.5,112.5C 146.942,111.21 145.942,110.377 144.5,110C 145.328,109.085 146.328,108.419 147.5,108C 146.944,107.617 146.611,107.117 146.5,106.5C 147.167,106.167 147.833,105.833 148.5,105.5 Z"/></g>
<g><path style="opacity:1" fill="#88cb7f" d="M 125.5,103.5 C 125.833,103.5 126.167,103.5 126.5,103.5C 123.758,107.246 121.425,111.246 119.5,115.5C 118.542,115.953 117.708,116.619 117,117.5C 116.935,115.117 116.102,114.45 114.5,115.5C 112.888,114.442 112.055,113.108 112,111.5C 113.512,109.043 114.846,109.043 116,111.5C 118.478,107.842 121.644,105.176 125.5,103.5 Z"/></g>
<g><path style="opacity:1" fill="#83b889" d="M 126.5,116.5 C 126.631,115.761 126.464,115.094 126,114.5C 125.081,117.402 124.248,117.735 123.5,115.5C 125.066,112.588 127.066,109.921 129.5,107.5C 129.833,107.833 130.167,108.167 130.5,108.5C 129.457,111.455 128.123,114.122 126.5,116.5 Z"/></g>
<g><path style="opacity:1" fill="#ebe073" d="M 95.5,109.5 C 96.675,109.281 97.675,109.614 98.5,110.5C 97.0476,111.94 96.0476,113.606 95.5,115.5C 93.395,118.402 92.0617,118.068 91.5,114.5C 93.5869,113.415 94.9202,111.749 95.5,109.5 Z"/></g>
<g><path style="opacity:1" fill="#e2df6b" d="M 99.5,110.5 C 100.497,110.47 101.164,110.97 101.5,112C 100.685,113.643 99.6854,115.143 98.5,116.5C 97.791,117.404 96.791,117.737 95.5,117.5C 95.5,116.833 95.5,116.167 95.5,115.5C 97.8927,114.647 99.226,112.981 99.5,110.5 Z"/></g>
<g><path style="opacity:1" fill="#9bdac3" d="M 177.5,111.5 C 178.239,111.369 178.906,111.536 179.5,112C 178.167,112.667 176.833,113.333 175.5,114C 175.728,114.399 176.062,114.565 176.5,114.5C 172.689,115.645 168.689,115.812 164.5,115C 162.563,114.878 161.23,114.045 160.5,112.5C 160.833,112.5 161.167,112.5 161.5,112.5C 166.839,114.871 172.172,114.538 177.5,111.5 Z"/></g>
<g><path style="opacity:1" fill="#e4ede5" d="M 160.5,112.5 C 161.23,114.045 162.563,114.878 164.5,115C 168.689,115.812 172.689,115.645 176.5,114.5C 177.167,114.5 177.833,114.5 178.5,114.5C 178.53,115.497 178.03,116.164 177,116.5C 171.361,119.155 165.861,119.155 160.5,116.5C 160.056,114.887 159.056,113.72 157.5,113C 158.448,112.517 159.448,112.351 160.5,112.5 Z"/></g>
<g><path style="opacity:1" fill="#3cadab" d="M 146.5,106.5 C 146.611,107.117 146.944,107.617 147.5,108C 146.328,108.419 145.328,109.085 144.5,110C 145.942,110.377 146.942,111.21 147.5,112.5C 146.305,112.322 145.138,111.989 144,111.5C 139.835,113.104 139.668,115.27 143.5,118C 141.893,118.115 140.393,117.615 139,116.5C 137.97,116.836 137.47,117.503 137.5,118.5C 136.508,118.328 135.842,118.662 135.5,119.5C 134.833,119.5 134.5,119.833 134.5,120.5C 133.508,120.328 132.842,120.662 132.5,121.5C 131.5,121.833 130.833,122.5 130.5,123.5C 129.778,124.551 128.778,125.218 127.5,125.5C 129.808,121.222 131.808,116.889 133.5,112.5C 133.369,113.239 133.536,113.906 134,114.5C 134.442,112.321 135.442,111.655 137,112.5C 138,110.833 139,109.167 140,107.5C 143.253,110.338 144.253,109.671 143,105.5C 144.011,106.337 145.178,106.67 146.5,106.5 Z"/></g>
<g><path style="opacity:1" fill="#59b0c4" d="M 58.5,117.5 C 58.5,118.5 58.5,119.5 58.5,120.5C 55.4822,118.474 52.4822,116.474 49.5,114.5C 50.0241,112.694 50.6908,111.028 51.5,109.5C 51.4914,111.308 51.9914,112.975 53,114.5C 54.016,113.366 54.6827,113.699 55,115.5C 55.3457,112.424 56.0124,109.424 57,106.5C 57.6869,108.568 57.5202,110.568 56.5,112.5C 57.0276,114.336 57.6942,116.003 58.5,117.5 Z"/></g>
<g><path style="opacity:1" fill="#87cdbf" d="M 180.5,118.5 C 175.537,119.254 170.537,119.587 165.5,119.5C 160.478,118.695 155.811,117.028 151.5,114.5C 154.5,115.167 157.5,115.833 160.5,116.5C 165.861,119.155 171.361,119.155 177,116.5C 178.03,116.164 178.53,115.497 178.5,114.5C 183.395,111.8 183.728,112.467 179.5,116.5C 180.025,117.192 180.692,117.692 181.5,118C 181.272,118.399 180.938,118.565 180.5,118.5 Z"/></g>
<g><path style="opacity:1" fill="#eaeeea" d="M 180.5,118.5 C 180.672,119.492 180.338,120.158 179.5,120.5C 172.699,123.06 166.032,123.06 159.5,120.5C 161.735,120.795 163.735,120.461 165.5,119.5C 170.537,119.587 175.537,119.254 180.5,118.5 Z"/></g>
<g><path style="opacity:1" fill="#27a4a3" d="M 126.5,116.5 C 126.573,120.72 124.573,123.054 120.5,123.5C 120.018,120.169 121.018,117.503 123.5,115.5C 124.248,117.735 125.081,117.402 126,114.5C 126.464,115.094 126.631,115.761 126.5,116.5 Z"/></g>
<g><path style="opacity:1" fill="#b2e67d" d="M 135.5,119.5 C 135.842,118.662 136.508,118.328 137.5,118.5C 137.369,119.239 137.536,119.906 138,120.5C 139.878,121.053 141.378,122.053 142.5,123.5C 141.577,124.303 140.577,124.47 139.5,124C 137.93,122.603 136.596,121.103 135.5,119.5 Z"/></g>
<g><path style="opacity:1" fill="#79cf9a" d="M 144.5,123.5 C 143.833,123.5 143.167,123.5 142.5,123.5C 141.378,122.053 139.878,121.053 138,120.5C 137.536,119.906 137.369,119.239 137.5,118.5C 138.117,118.389 138.617,118.056 139,117.5C 140.725,119.609 142.558,121.609 144.5,123.5 Z"/></g>
<g><path style="opacity:1" fill="#dddf7d" d="M 147.5,112.5 C 148.514,113.674 149.847,114.34 151.5,114.5C 155.811,117.028 160.478,118.695 165.5,119.5C 163.735,120.461 161.735,120.795 159.5,120.5C 157.5,120.167 155.5,119.833 153.5,119.5C 157.771,122.335 162.437,124.002 167.5,124.5C 164.5,124.5 161.5,124.5 158.5,124.5C 157.5,124.5 156.5,124.5 155.5,124.5C 152.642,122.94 149.642,121.274 146.5,119.5C 146.167,119.667 145.833,119.833 145.5,120C 148.531,123.272 148.197,124.439 144.5,123.5C 142.558,121.609 140.725,119.609 139,117.5C 138.617,118.056 138.117,118.389 137.5,118.5C 137.47,117.503 137.97,116.836 139,116.5C 140.393,117.615 141.893,118.115 143.5,118C 139.668,115.27 139.835,113.104 144,111.5C 145.138,111.989 146.305,112.322 147.5,112.5 Z"/></g>
<g><path style="opacity:1" fill="#7abe96" d="M 153.5,119.5 C 151.158,119.496 149.158,118.663 147.5,117C 149.821,116.992 151.821,117.825 153.5,119.5 Z"/></g>
<g><path style="opacity:1" fill="#aae671" d="M 134.5,120.5 C 135.29,121.794 136.29,122.961 137.5,124C 137,124.5 136.5,125 136,125.5C 134.624,124.295 133.458,122.962 132.5,121.5C 132.842,120.662 133.508,120.328 134.5,120.5 Z"/></g>
<g><path style="opacity:1" fill="#c3d490" d="M 155.5,124.5 C 156.167,125.167 156.833,125.833 157.5,126.5C 157.672,127.492 157.338,128.158 156.5,128.5C 155.5,128.5 154.5,128.5 153.5,128.5C 150.008,127.59 147.008,125.924 144.5,123.5C 148.197,124.439 148.531,123.272 145.5,120C 145.833,119.833 146.167,119.667 146.5,119.5C 149.642,121.274 152.642,122.94 155.5,124.5 Z"/></g>
<g><path style="opacity:1" fill="#7ecbc2" d="M 153.5,119.5 C 155.5,119.833 157.5,120.167 159.5,120.5C 166.032,123.06 172.699,123.06 179.5,120.5C 179.5,120.833 179.5,121.167 179.5,121.5C 175.8,123.245 171.8,124.245 167.5,124.5C 162.437,124.002 157.771,122.335 153.5,119.5 Z"/></g>
<g><path style="opacity:1" fill="#80ceab" d="M 135.5,119.5 C 136.596,121.103 137.93,122.603 139.5,124C 140.577,124.47 141.577,124.303 142.5,123.5C 143.475,126.287 143.141,128.954 141.5,131.5C 140.395,130.4 139.062,129.733 137.5,129.5C 135.761,126.757 133.427,124.757 130.5,123.5C 130.833,122.5 131.5,121.833 132.5,121.5C 133.458,122.962 134.624,124.295 136,125.5C 136.5,125 137,124.5 137.5,124C 136.29,122.961 135.29,121.794 134.5,120.5C 134.5,119.833 134.833,119.5 135.5,119.5 Z"/></g>
<g><path style="opacity:1" fill="#e8eced" d="M 179.5,121.5 C 180.376,121.369 181.043,121.702 181.5,122.5C 180.167,123.5 180.167,124.5 181.5,125.5C 178.104,129.363 173.77,131.363 168.5,131.5C 164.268,130.916 160.268,129.916 156.5,128.5C 157.338,128.158 157.672,127.492 157.5,126.5C 163.803,128.617 170.136,128.784 176.5,127C 171.5,126.667 166.5,126.333 161.5,126C 160.263,125.768 159.263,125.268 158.5,124.5C 161.5,124.5 164.5,124.5 167.5,124.5C 171.8,124.245 175.8,123.245 179.5,121.5 Z"/></g>
<g><path style="opacity:1" fill="#edeeed" d="M 65.5,126.5 C 66.7095,126.932 67.7095,127.599 68.5,128.5C 66.8824,135.034 67.549,141.367 70.5,147.5C 70.3333,147.833 70.1667,148.167 70,148.5C 68.2359,146.611 66.7359,144.611 65.5,142.5C 64.3294,137.151 64.3294,131.818 65.5,126.5 Z"/></g>
<g><path style="opacity:1" fill="#5dbac1" d="M 89.5,115.5 C 90.1667,115.167 90.8333,114.833 91.5,114.5C 92.0617,118.068 93.395,118.402 95.5,115.5C 95.5,116.167 95.5,116.833 95.5,117.5C 93.1552,119.566 92.9885,121.9 95,124.5C 95.3076,123.692 95.8076,123.025 96.5,122.5C 97.2811,123.729 97.7811,125.062 98,126.5C 99.2515,124.999 100.252,123.332 101,121.5C 102.119,122.552 102.619,123.719 102.5,125C 101.833,125.667 101.167,126.333 100.5,127C 102.107,126.981 103.774,126.815 105.5,126.5C 105.231,124.571 105.731,122.905 107,121.5C 107.333,122.167 107.667,122.833 108,123.5C 108.424,121.385 109.591,120.552 111.5,121C 110.269,122.183 110.269,123.349 111.5,124.5C 112.243,123.092 113.077,121.759 114,120.5C 114.414,120.957 114.914,121.291 115.5,121.5C 116.265,120.388 117.265,119.721 118.5,119.5C 118.5,120.833 118.5,122.167 118.5,123.5C 117.773,125.954 116.773,128.287 115.5,130.5C 114.434,131.692 113.601,131.359 113,129.5C 112.536,130.094 112.369,130.761 112.5,131.5C 111.365,132.103 110.365,132.436 109.5,132.5C 108.833,132.5 108.5,132.833 108.5,133.5C 107.883,133.389 107.383,133.056 107,132.5C 105.902,133.967 104.402,134.801 102.5,135C 101.773,136.399 101.273,137.899 101,139.5C 100.51,138.207 100.343,136.873 100.5,135.5C 97.8333,135.5 95.1667,135.5 92.5,135.5C 91.5,135.5 90.5,135.5 89.5,135.5C 89.5,134.833 89.1667,134.5 88.5,134.5C 87.5,134.5 86.5,134.5 85.5,134.5C 85.1667,134.5 84.8333,134.5 84.5,134.5C 83.791,133.596 82.791,133.263 81.5,133.5C 81.5393,131.776 81.206,131.443 80.5,132.5C 78.0347,132.233 75.7014,131.566 73.5,130.5C 73.1667,130.5 72.8333,130.5 72.5,130.5C 71.7095,129.599 70.7095,128.932 69.5,128.5C 69.1667,128.5 68.8333,128.5 68.5,128.5C 67.7095,127.599 66.7095,126.932 65.5,126.5C 65.5,125.833 65.1667,125.5 64.5,125.5C 63.8333,125.167 63.1667,124.833 62.5,124.5C 62.3253,122.379 62.6586,120.379 63.5,118.5C 64.4793,117.235 65.4793,115.901 66.5,114.5C 67.4348,121.708 68.9348,122.041 71,115.5C 71.5946,116.899 71.4279,118.232 70.5,119.5C 71.6507,120.731 72.8173,120.731 74,119.5C 74.3333,121.167 74.6667,122.833 75,124.5C 77.5567,121.072 79.89,117.405 82,113.5C 81.9211,115.846 81.0877,118.013 79.5,120C 81.8878,120.865 83.3878,120.032 84,117.5C 84.2492,118.624 84.7492,119.624 85.5,120.5C 87.6114,119.395 88.9447,117.729 89.5,115.5 Z"/></g>
<g><path style="opacity:1" fill="#97d0d8" d="M 155.5,124.5 C 156.5,124.5 157.5,124.5 158.5,124.5C 159.263,125.268 160.263,125.768 161.5,126C 166.5,126.333 171.5,126.667 176.5,127C 170.136,128.784 163.803,128.617 157.5,126.5C 156.833,125.833 156.167,125.167 155.5,124.5 Z"/></g>
<g><path style="opacity:1" fill="#5cc28f" d="M 118.5,123.5 C 120.987,126.464 123.987,127.131 127.5,125.5C 128.242,127.426 129.242,129.259 130.5,131C 128.983,132.779 128.149,132.279 128,129.5C 127.184,128.177 126.017,127.511 124.5,127.5C 121.743,129.086 118.743,130.086 115.5,130.5C 116.773,128.287 117.773,125.954 118.5,123.5 Z"/></g>
<g><path style="opacity:1" fill="#e7eee6" d="M 69.5,128.5 C 70.7095,128.932 71.7095,129.599 72.5,130.5C 71.0505,135.963 71.5505,141.296 74,146.5C 73.661,141.227 73.4943,135.893 73.5,130.5C 75.7014,131.566 78.0347,132.233 80.5,132.5C 80.1115,137.628 80.6115,142.628 82,147.5C 81.6903,142.893 81.5236,138.227 81.5,133.5C 82.791,133.263 83.791,133.596 84.5,134.5C 84.335,137.85 84.5017,141.183 85,144.5C 85.3736,146.491 86.207,148.158 87.5,149.5C 86.7211,151.927 85.5545,151.927 84,149.5C 84.0773,150.738 83.9106,151.738 83.5,152.5C 81.8717,152.421 80.2051,152.088 78.5,151.5C 77.3832,148.721 76.2166,148.388 75,150.5C 69.3016,144.186 67.4683,136.852 69.5,128.5 Z"/></g>
<g><path style="opacity:1" fill="#edeeee" d="M 177.5,133.5 C 169.909,136.358 162.575,136.025 155.5,132.5C 155.5,131.833 155.5,131.167 155.5,130.5C 163.67,133.45 171.67,133.116 179.5,129.5C 179.833,129.667 180.167,129.833 180.5,130C 179.29,131.039 178.29,132.206 177.5,133.5 Z"/></g>
<g><path style="opacity:1" fill="#57b7c6" d="M 182.5,95.5 C 184.801,102.606 185.801,109.939 185.5,117.5C 184.828,126.535 182.162,134.868 177.5,142.5C 176.527,142.013 175.527,141.513 174.5,141C 176.061,140.059 177.395,138.892 178.5,137.5C 177.332,136.094 177.665,134.928 179.5,134C 178.906,133.536 178.239,133.369 177.5,133.5C 178.29,132.206 179.29,131.039 180.5,130C 180.167,129.833 179.833,129.667 179.5,129.5C 171.67,133.116 163.67,133.45 155.5,130.5C 154.833,129.833 154.167,129.167 153.5,128.5C 154.5,128.5 155.5,128.5 156.5,128.5C 160.268,129.916 164.268,130.916 168.5,131.5C 173.77,131.363 178.104,129.363 181.5,125.5C 180.167,124.5 180.167,123.5 181.5,122.5C 181.043,121.702 180.376,121.369 179.5,121.5C 179.5,121.167 179.5,120.833 179.5,120.5C 180.338,120.158 180.672,119.492 180.5,118.5C 180.938,118.565 181.272,118.399 181.5,118C 180.692,117.692 180.025,117.192 179.5,116.5C 183.728,112.467 183.395,111.8 178.5,114.5C 177.833,114.5 177.167,114.5 176.5,114.5C 176.062,114.565 175.728,114.399 175.5,114C 176.833,113.333 178.167,112.667 179.5,112C 178.906,111.536 178.239,111.369 177.5,111.5C 174.673,110.632 171.673,110.632 168.5,111.5C 165.61,110.755 162.61,110.088 159.5,109.5C 159.5,109.167 159.5,108.833 159.5,108.5C 160.167,108.5 160.833,108.5 161.5,108.5C 166.074,109.835 170.74,109.668 175.5,108C 174.672,107.085 173.672,106.419 172.5,106C 172.833,105.667 173.167,105.333 173.5,105C 171.256,103.112 171.256,101.612 173.5,100.5C 177.258,100.122 180.258,98.4558 182.5,95.5 Z"/></g>
<g><path style="opacity:1" fill="#7fc7d2" d="M 155.5,132.5 C 162.575,136.025 169.909,136.358 177.5,133.5C 174.245,135.566 170.579,136.566 166.5,136.5C 162.435,136.15 158.435,135.483 154.5,134.5C 151.742,133.033 152.075,132.367 155.5,132.5 Z"/></g>
<g><path style="opacity:1" fill="#9ae99f" d="M 81.5,133.5 C 81.5236,138.227 81.6903,142.893 82,147.5C 80.6115,142.628 80.1115,137.628 80.5,132.5C 81.206,131.443 81.5393,131.776 81.5,133.5 Z"/></g>
<g><path style="opacity:1" fill="#edeeed" d="M 85.5,134.5 C 86.5,134.5 87.5,134.5 88.5,134.5C 88.0148,139.995 89.0148,145.162 91.5,150C 90.9056,150.464 90.2389,150.631 89.5,150.5C 88.8333,150.167 88.1667,149.833 87.5,149.5C 85.9592,144.636 85.2925,139.636 85.5,134.5 Z"/></g>
<g><path style="opacity:1" fill="#a6e890" d="M 130.5,123.5 C 133.427,124.757 135.761,126.757 137.5,129.5C 137.5,130.167 137.5,130.833 137.5,131.5C 134.753,128.689 133.586,129.023 134,132.5C 133.085,131.672 132.419,130.672 132,129.5C 131.595,131.775 132.095,133.775 133.5,135.5C 132.048,137.559 130.048,139.892 127.5,142.5C 127.032,139.454 126.032,136.621 124.5,134C 124.995,131.991 124.995,129.824 124.5,127.5C 126.017,127.511 127.184,128.177 128,129.5C 128.149,132.279 128.983,132.779 130.5,131C 129.242,129.259 128.242,127.426 127.5,125.5C 128.778,125.218 129.778,124.551 130.5,123.5 Z"/></g>
<g><path style="opacity:1" fill="#9ed3b6" d="M 137.5,131.5 C 138.679,133.507 138.179,133.84 136,132.5C 135.37,134.903 136.203,136.737 138.5,138C 136.565,137.942 134.898,137.109 133.5,135.5C 132.095,133.775 131.595,131.775 132,129.5C 132.419,130.672 133.085,131.672 134,132.5C 133.586,129.023 134.753,128.689 137.5,131.5 Z"/></g>
<g><path style="opacity:1" fill="#e6dd90" d="M 142.5,123.5 C 143.167,123.5 143.833,123.5 144.5,123.5C 147.008,125.924 150.008,127.59 153.5,128.5C 154.167,129.167 154.833,129.833 155.5,130.5C 155.5,131.167 155.5,131.833 155.5,132.5C 152.075,132.367 151.742,133.033 154.5,134.5C 153.849,135.091 153.182,135.757 152.5,136.5C 150.271,135.037 147.937,134.203 145.5,134C 147.249,135.292 149.082,136.458 151,137.5C 151.47,138.577 151.303,139.577 150.5,140.5C 149.833,140.5 149.5,140.833 149.5,141.5C 149.189,142.478 148.522,143.145 147.5,143.5C 145.925,142.544 144.258,141.877 142.5,141.5C 140.103,139.544 140.103,137.71 142.5,136C 141.62,134.644 141.286,133.144 141.5,131.5C 143.141,128.954 143.475,126.287 142.5,123.5 Z"/></g>
<g><path style="opacity:1" fill="#eaeee8" d="M 89.5,135.5 C 90.5,135.5 91.5,135.5 92.5,135.5C 92.3379,137.527 92.5045,139.527 93,141.5C 93.3333,140.167 93.6667,138.833 94,137.5C 94.5053,140.865 95.672,143.865 97.5,146.5C 96.8106,147.774 95.9772,147.774 95,146.5C 94.4867,147.527 93.9867,148.527 93.5,149.5C 92.2101,148.942 91.3768,147.942 91,146.5C 89.8924,142.914 89.3924,139.247 89.5,135.5 Z"/></g>
<g><path style="opacity:1" fill="#e1eac5" d="M 112.5,131.5 C 112.271,133.433 111.438,135.1 110,136.5C 109.51,135.207 109.343,133.873 109.5,132.5C 110.365,132.436 111.365,132.103 112.5,131.5 Z"/></g>
<g><path style="opacity:1" fill="#bceeb8" d="M 72.5,130.5 C 72.8333,130.5 73.1667,130.5 73.5,130.5C 73.4943,135.893 73.661,141.227 74,146.5C 71.5505,141.296 71.0505,135.963 72.5,130.5 Z"/></g>
<g><path style="opacity:1" fill="#a9eea4" d="M 59.5,128.5 C 60.7255,132.645 61.2255,136.978 61,141.5C 59.7101,137.27 59.2101,132.936 59.5,128.5 Z"/></g>
<g><path style="opacity:1" fill="#aceda9" d="M 64.5,125.5 C 65.1667,125.5 65.5,125.833 65.5,126.5C 64.3294,131.818 64.3294,137.151 65.5,142.5C 64.027,139.983 63.3603,137.15 63.5,134C 63.6843,131.135 64.0177,128.302 64.5,125.5 Z"/></g>
<g><path style="opacity:1" fill="#e0ebbc" d="M 108.5,133.5 C 109.007,137.67 107.341,140.67 103.5,142.5C 102.808,141.975 102.308,141.308 102,140.5C 102.175,143.818 100.675,145.818 97.5,146.5C 95.672,143.865 94.5053,140.865 94,137.5C 93.6667,138.833 93.3333,140.167 93,141.5C 92.5045,139.527 92.3379,137.527 92.5,135.5C 95.1667,135.5 97.8333,135.5 100.5,135.5C 100.343,136.873 100.51,138.207 101,139.5C 101.273,137.899 101.773,136.399 102.5,135C 104.402,134.801 105.902,133.967 107,132.5C 107.383,133.056 107.883,133.389 108.5,133.5 Z"/></g>
<g><path style="opacity:1" fill="#cce2e4" d="M 154.5,134.5 C 158.435,135.483 162.435,136.15 166.5,136.5C 170.579,136.566 174.245,135.566 177.5,133.5C 178.239,133.369 178.906,133.536 179.5,134C 177.665,134.928 177.332,136.094 178.5,137.5C 177.395,138.892 176.061,140.059 174.5,141C 175.527,141.513 176.527,142.013 177.5,142.5C 173.253,146.533 168.086,148.533 162,148.5C 156.498,148.333 151.331,147 146.5,144.5C 144.545,144.201 143.211,143.201 142.5,141.5C 144.258,141.877 145.925,142.544 147.5,143.5C 148.522,143.145 149.189,142.478 149.5,141.5C 156.991,144.708 164.658,145.208 172.5,143C 164.974,144.108 157.641,143.275 150.5,140.5C 151.303,139.577 151.47,138.577 151,137.5C 149.082,136.458 147.249,135.292 145.5,134C 147.937,134.203 150.271,135.037 152.5,136.5C 153.182,135.757 153.849,135.091 154.5,134.5 Z"/></g>
<g><path style="opacity:1" fill="#9ceb7e" d="M 124.5,127.5 C 124.995,129.824 124.995,131.991 124.5,134C 126.032,136.621 127.032,139.454 127.5,142.5C 125.633,143.76 124.3,145.427 123.5,147.5C 122.883,147.389 122.383,147.056 122,146.5C 115.703,150.042 109.203,152.709 102.5,154.5C 93.0994,155.857 83.7661,155.524 74.5,153.5C 74.7828,152.711 75.2828,152.044 76,151.5C 76.9772,152.774 77.8106,152.774 78.5,151.5C 80.2051,152.088 81.8717,152.421 83.5,152.5C 83.9106,151.738 84.0773,150.738 84,149.5C 85.5545,151.927 86.7211,151.927 87.5,149.5C 88.1667,149.833 88.8333,150.167 89.5,150.5C 90.6883,151.364 91.8549,152.364 93,153.5C 93.6449,152.354 94.4783,151.354 95.5,150.5C 95.0431,149.702 94.3764,149.369 93.5,149.5C 93.9867,148.527 94.4867,147.527 95,146.5C 95.9772,147.774 96.8106,147.774 97.5,146.5C 100.675,145.818 102.175,143.818 102,140.5C 102.308,141.308 102.808,141.975 103.5,142.5C 107.341,140.67 109.007,137.67 108.5,133.5C 108.5,132.833 108.833,132.5 109.5,132.5C 109.343,133.873 109.51,135.207 110,136.5C 111.438,135.1 112.271,133.433 112.5,131.5C 112.369,130.761 112.536,130.094 113,129.5C 113.601,131.359 114.434,131.692 115.5,130.5C 118.743,130.086 121.743,129.086 124.5,127.5 Z"/></g>
<g><path style="opacity:1" fill="#eeebdc" d="M 137.5,129.5 C 139.062,129.733 140.395,130.4 141.5,131.5C 141.286,133.144 141.62,134.644 142.5,136C 140.103,137.71 140.103,139.544 142.5,141.5C 141.504,141.586 140.671,141.252 140,140.5C 139.692,141.308 139.192,141.975 138.5,142.5C 137.38,141.167 136.047,140.667 134.5,141C 135.685,142.353 137.019,143.52 138.5,144.5C 138.023,145.478 137.357,146.311 136.5,147C 137.167,147.333 137.833,147.667 138.5,148C 136.756,149.341 134.923,150.508 133,151.5C 129.621,150.557 126.454,149.224 123.5,147.5C 124.3,145.427 125.633,143.76 127.5,142.5C 130.048,139.892 132.048,137.559 133.5,135.5C 134.898,137.109 136.565,137.942 138.5,138C 136.203,136.737 135.37,134.903 136,132.5C 138.179,133.84 138.679,133.507 137.5,131.5C 137.5,130.833 137.5,130.167 137.5,129.5 Z"/></g>
<g><path style="opacity:1" fill="#73c3d2" d="M 149.5,141.5 C 149.5,140.833 149.833,140.5 150.5,140.5C 157.641,143.275 164.974,144.108 172.5,143C 164.658,145.208 156.991,144.708 149.5,141.5 Z"/></g>
<g><path style="opacity:1" fill="#a3ee9e" d="M 84.5,134.5 C 84.8333,134.5 85.1667,134.5 85.5,134.5C 85.2925,139.636 85.9592,144.636 87.5,149.5C 86.207,148.158 85.3736,146.491 85,144.5C 84.5017,141.183 84.335,137.85 84.5,134.5 Z"/></g>
<g><path style="opacity:1" fill="#aeeea9" d="M 68.5,128.5 C 68.8333,128.5 69.1667,128.5 69.5,128.5C 67.4683,136.852 69.3016,144.186 75,150.5C 76.2166,148.388 77.3832,148.721 78.5,151.5C 77.8106,152.774 76.9772,152.774 76,151.5C 75.2828,152.044 74.7828,152.711 74.5,153.5C 70.4897,152.411 66.9897,150.411 64,147.5C 63.7188,145.095 64.3854,145.095 66,147.5C 65.9813,145.893 65.8146,144.226 65.5,142.5C 66.7359,144.611 68.2359,146.611 70,148.5C 70.1667,148.167 70.3333,147.833 70.5,147.5C 67.549,141.367 66.8824,135.034 68.5,128.5 Z"/></g>
<g><path style="opacity:1" fill="#fbe285" d="M 142.5,141.5 C 143.211,143.201 144.545,144.201 146.5,144.5C 140.062,152.432 132.062,158.265 122.5,162C 118.973,162.808 115.64,162.641 112.5,161.5C 115.91,161.543 119.243,161.043 122.5,160C 120.913,159.138 119.246,158.471 117.5,158C 116.304,157.346 116.304,156.846 117.5,156.5C 121.002,158.262 124.668,158.762 128.5,158C 127.167,157.667 125.833,157.333 124.5,157C 128.234,157.088 131.234,155.755 133.5,153C 129.373,152.44 126.04,150.607 123.5,147.5C 126.454,149.224 129.621,150.557 133,151.5C 134.923,150.508 136.756,149.341 138.5,148C 137.833,147.667 137.167,147.333 136.5,147C 137.357,146.311 138.023,145.478 138.5,144.5C 137.019,143.52 135.685,142.353 134.5,141C 136.047,140.667 137.38,141.167 138.5,142.5C 139.192,141.975 139.692,141.308 140,140.5C 140.671,141.252 141.504,141.586 142.5,141.5 Z"/></g>
<g><path style="opacity:1" fill="#aaeda6" d="M 88.5,134.5 C 89.1667,134.5 89.5,134.833 89.5,135.5C 89.3924,139.247 89.8924,142.914 91,146.5C 91.3768,147.942 92.2101,148.942 93.5,149.5C 94.3764,149.369 95.0431,149.702 95.5,150.5C 94.4783,151.354 93.6449,152.354 93,153.5C 91.8549,152.364 90.6883,151.364 89.5,150.5C 90.2389,150.631 90.9056,150.464 91.5,150C 89.0148,145.162 88.0148,139.995 88.5,134.5 Z"/></g>
<g><path style="opacity:1" fill="#f1ecd9" d="M 123.5,147.5 C 126.04,150.607 129.373,152.44 133.5,153C 131.234,155.755 128.234,157.088 124.5,157C 125.833,157.333 127.167,157.667 128.5,158C 124.668,158.762 121.002,158.262 117.5,156.5C 116.304,156.846 116.304,157.346 117.5,158C 119.246,158.471 120.913,159.138 122.5,160C 119.243,161.043 115.91,161.543 112.5,161.5C 108.117,160.644 104.784,158.31 102.5,154.5C 109.203,152.709 115.703,150.042 122,146.5C 122.383,147.056 122.883,147.389 123.5,147.5 Z"/></g>
<g><path style="opacity:1" fill="#181818" d="M 12.5,180.5 C 15.1391,182.838 14.8058,185.005 11.5,187C 12.7433,188.154 13.7433,189.488 14.5,191C 12.2688,191.163 10.9355,189.997 10.5,187.5C 9.67504,186.614 8.67504,186.281 7.5,186.5C 7.66018,188.199 7.49351,189.866 7,191.5C 6.50115,187.514 6.33449,183.514 6.5,179.5C 8.73535,179.205 10.7354,179.539 12.5,180.5 Z"/></g>
<g><path style="opacity:1" fill="#2e2e2e" d="M 35.5,179.5 C 36.7943,181.048 37.4609,183.048 37.5,185.5C 37.1667,187.5 36.8333,189.5 36.5,191.5C 35.5091,187.555 35.1758,183.555 35.5,179.5 Z"/></g>
<g><path style="opacity:1" fill="#191919" d="M 54.5,185.5 C 53.5489,186.919 53.2155,188.585 53.5,190.5C 55.7354,190.205 57.7354,190.539 59.5,191.5C 57.1667,191.5 54.8333,191.5 52.5,191.5C 52.5,187.5 52.5,183.5 52.5,179.5C 54.8568,179.337 57.1902,179.503 59.5,180C 57.8659,180.494 56.1992,180.66 54.5,180.5C 54.5,181.833 54.5,183.167 54.5,184.5C 61.1667,184.833 61.1667,185.167 54.5,185.5 Z"/></g>
<g><path style="opacity:1" fill="#232323" d="M 79.5,179.5 C 88.7687,179.595 90.7687,183.428 85.5,191C 79.9786,192.812 77.3119,190.812 77.5,185C 77.3948,182.822 78.0615,180.988 79.5,179.5 Z"/></g>
<g><path style="opacity:1" fill="#050505" d="M 116.5,180.5 C 122.567,179.285 124.234,179.285 121.5,180.5C 121.167,195.167 120.833,195.167 120.5,180.5C 119.167,180.5 117.833,180.5 116.5,180.5 Z"/></g>
<g><path style="opacity:1" fill="#191919" d="M 138.5,179.5 C 140.857,179.337 143.19,179.503 145.5,180C 147.487,185.523 145.487,188.023 139.5,187.5C 138.104,188.419 137.77,185.753 138.5,179.5 Z"/></g>
<g><path style="opacity:1" fill="#2e2e2e" d="M 148.5,179.5 C 149.794,181.048 150.461,183.048 150.5,185.5C 150.167,187.5 149.833,189.5 149.5,191.5C 148.509,187.555 148.176,183.555 148.5,179.5 Z"/></g>
<g><path style="opacity:1" fill="#1f1f1f" d="M 167.5,179.5 C 170.665,178.964 173.331,179.797 175.5,182C 173.822,181.888 172.155,181.388 170.5,180.5C 166.222,182.339 165.389,185.339 168,189.5C 169.399,190.227 170.899,190.727 172.5,191C 169.472,192.14 167.305,191.306 166,188.5C 165.068,185.177 165.568,182.177 167.5,179.5 Z"/></g>
<g><path style="opacity:1" fill="#2a2a2a" d="M 184.5,179.5 C 187.908,178.828 190.575,179.828 192.5,182.5C 192.167,182.833 191.833,183.167 191.5,183.5C 189.401,180.016 186.901,179.682 184,182.5C 183.108,190.625 185.941,192.459 192.5,188C 188.698,192.835 185.198,192.668 182,187.5C 181.018,184.225 181.851,181.559 184.5,179.5 Z"/></g>
<g><path style="opacity:1" fill="#252525" d="M 16.5,179.5 C 19.1873,179.336 21.854,179.503 24.5,180C 22.5273,180.495 20.5273,180.662 18.5,180.5C 18.5,181.833 18.5,183.167 18.5,184.5C 25.1667,184.833 25.1667,185.167 18.5,185.5C 18.5,187.167 18.5,188.833 18.5,190.5C 20.5273,190.338 22.5273,190.505 24.5,191C 21.854,191.497 19.1873,191.664 16.5,191.5C 16.5,187.5 16.5,183.5 16.5,179.5 Z"/></g>
<g><path style="opacity:1" fill="#2a2a2a" d="M 26.5,179.5 C 28.8568,179.337 31.1902,179.503 33.5,180C 31.8659,180.494 30.1992,180.66 28.5,180.5C 28.5,181.833 28.5,183.167 28.5,184.5C 35.1667,184.833 35.1667,185.167 28.5,185.5C 28.7989,187.604 28.4656,189.604 27.5,191.5C 26.5091,187.555 26.1758,183.555 26.5,179.5 Z"/></g>
<g><path style="opacity:1" fill="#dedede" d="M 80.5,180.5 C 85.9885,180.504 87.8219,183.171 86,188.5C 83.3676,191.192 81.0342,190.859 79,187.5C 78.1668,184.829 78.6668,182.496 80.5,180.5 Z"/></g>
<g><path style="opacity:1" fill="#e2e2e2" d="M 12.5,180.5 C 13.1667,184.5 11.5,186.167 7.5,185.5C 7.5,183.833 7.5,182.167 7.5,180.5C 9.16667,180.5 10.8333,180.5 12.5,180.5 Z"/></g>
<g><path style="opacity:1" fill="#d6d6d6" d="M 139.5,180.5 C 141.199,180.34 142.866,180.506 144.5,181C 145.833,182.333 145.833,183.667 144.5,185C 142.866,185.494 141.199,185.66 139.5,185.5C 139.5,183.833 139.5,182.167 139.5,180.5 Z"/></g>
<g><path style="opacity:1" fill="#2f2f2f" d="M 218.5,179.5 C 220.045,180.23 220.878,181.563 221,183.5C 227.153,178.156 227.653,178.489 222.5,184.5C 227.822,193.187 227.322,193.521 221,185.5C 220.808,187.577 220.308,189.577 219.5,191.5C 218.509,187.555 218.176,183.555 218.5,179.5 Z"/></g>
<g><path style="opacity:1" fill="#161616" d="M 40.5,179.5 C 43.4392,181.988 45.9392,184.988 48,188.5C 48.3333,185.5 48.6667,182.5 49,179.5C 49.8265,183.541 49.6599,187.541 48.5,191.5C 46.3333,188.5 44.1667,185.5 42,182.5C 41.6667,185.5 41.3333,188.5 41,191.5C 40.5012,187.514 40.3345,183.514 40.5,179.5 Z"/></g>
<g><path style="opacity:1" fill="#1c1c1c" d="M 66.5,179.5 C 68.4331,180.642 69.9331,182.308 71,184.5C 72.0836,183.335 72.9169,182.002 73.5,180.5C 74.0016,179.479 74.6683,179.312 75.5,180C 73.024,183.452 71.524,187.285 71,191.5C 70.3166,187.144 68.8166,183.144 66.5,179.5 Z"/></g>
<g><path style="opacity:1" fill="#212121" d="M 102.5,179.5 C 110.403,178.053 112.403,180.72 108.5,187.5C 109.833,188.62 110.333,189.953 110,191.5C 108.49,189.792 106.99,188.126 105.5,186.5C 104.833,188.167 104.167,189.833 103.5,191.5C 102.509,187.555 102.176,183.555 102.5,179.5 Z"/></g>
<g><path style="opacity:1" fill="#d1d1d1" d="M 103.5,180.5 C 105.199,180.34 106.866,180.506 108.5,181C 109.833,182.333 109.833,183.667 108.5,185C 106.866,185.494 105.199,185.66 103.5,185.5C 103.5,183.833 103.5,182.167 103.5,180.5 Z"/></g>
<g><path style="opacity:1" fill="#161616" d="M 153.5,179.5 C 156.439,181.988 158.939,184.988 161,188.5C 161.333,185.5 161.667,182.5 162,179.5C 162.827,183.541 162.66,187.541 161.5,191.5C 159.333,188.5 157.167,185.5 155,182.5C 154.667,185.5 154.333,188.5 154,191.5C 153.501,187.514 153.334,183.514 153.5,179.5 Z"/></g>
<g><path style="opacity:1" fill="#161616" d="M 171.5,186.5 C 172.568,185.566 173.901,185.232 175.5,185.5C 175.662,187.527 175.495,189.527 175,191.5C 173.706,190.146 173.54,188.812 174.5,187.5C 173.675,186.614 172.675,186.281 171.5,186.5 Z"/></g>
<g><path style="opacity:1" fill="#212121" d="M 229.5,179.5 C 237.403,178.053 239.403,180.72 235.5,187.5C 236.833,188.62 237.333,189.953 237,191.5C 235.49,189.792 233.99,188.126 232.5,186.5C 231.833,188.167 231.167,189.833 230.5,191.5C 229.509,187.555 229.176,183.555 229.5,179.5 Z"/></g>
<g><path style="opacity:1" fill="#d1d1d1" d="M 230.5,180.5 C 232.199,180.34 233.866,180.506 235.5,181C 236.833,182.333 236.833,183.667 235.5,185C 233.866,185.494 232.199,185.66 230.5,185.5C 230.5,183.833 230.5,182.167 230.5,180.5 Z"/></g>
<g><path style="opacity:1" fill="#343434" d="M 194.5,179.5 C 196.256,180.552 196.923,182.219 196.5,184.5C 198.5,184.5 200.5,184.5 202.5,184.5C 202.215,182.712 202.548,181.045 203.5,179.5C 204.833,183.5 204.833,187.5 203.5,191.5C 202.534,189.604 202.201,187.604 202.5,185.5C 200.5,185.5 198.5,185.5 196.5,185.5C 196.799,187.604 196.466,189.604 195.5,191.5C 194.509,187.555 194.176,183.555 194.5,179.5 Z"/></g>
<g><path style="opacity:1" fill="#292929" d="M 210.5,179.5 C 211.75,179.577 212.583,180.244 213,181.5C 213.873,184.618 215.039,187.618 216.5,190.5C 216.167,190.833 215.833,191.167 215.5,191.5C 212.707,186.244 209.873,186.244 207,191.5C 207.264,187.287 208.43,183.287 210.5,179.5 Z"/></g>
<g><path style="opacity:1" fill="#d6d6d6" d="M 210.5,181.5 C 211.601,182.848 212.601,184.348 213.5,186C 212.056,186.781 210.723,186.614 209.5,185.5C 210.246,184.264 210.579,182.93 210.5,181.5 Z"/></g>
<g><path style="opacity:1" fill="#2b2b2b" d="M 243.5,179.5 C 244.496,179.414 245.329,179.748 246,180.5C 247.371,184.073 248.871,187.573 250.5,191C 248.797,189.972 246.963,188.806 245,187.5C 243.037,188.806 241.203,189.972 239.5,191C 241.53,187.411 242.863,183.578 243.5,179.5 Z"/></g>
<g><path style="opacity:1" fill="#dadada" d="M 244.5,181.5 C 245.931,182.78 246.598,184.447 246.5,186.5C 245.5,186.5 244.5,186.5 243.5,186.5C 243.629,184.784 243.962,183.117 244.5,181.5 Z"/></g>
<g><path style="opacity:1" fill="#272727" d="M 127.5,179.5 C 129.054,180.914 130.388,182.581 131.5,184.5C 132.584,183.335 133.417,182.002 134,180.5C 134.654,179.304 135.154,179.304 135.5,180.5C 133.433,183.902 132.1,187.569 131.5,191.5C 130.725,187.29 129.392,183.29 127.5,179.5 Z"/></g>
<g><path style="opacity:1" fill="#272727" d="M 90.5,179.5 C 91.3171,181.969 91.8171,184.635 92,187.5C 93.4781,190.993 95.4781,191.326 98,188.5C 99.3293,176.5 99.996,176.5 100,188.5C 97.2935,191.978 94.2935,192.311 91,189.5C 90.5017,186.183 90.335,182.85 90.5,179.5 Z"/></g>
<g><path style="opacity:1" fill="#808080" d="M 54.5,185.5 C 54.5,186.833 54.5,188.167 54.5,189.5C 56.604,189.201 58.604,189.534 60.5,190.5C 60.3764,191.107 60.0431,191.44 59.5,191.5C 57.7354,190.539 55.7354,190.205 53.5,190.5C 53.2155,188.585 53.5489,186.919 54.5,185.5 Z"/></g>
</svg>
